<?xml version="1.0" encoding="UTF-8" standalone="no"?><svg xmlns="http://www.w3.org/2000/svg" xmlns:xlink="http://www.w3.org/1999/xlink" contentScriptType="application/ecmascript" contentStyleType="text/css" height="678px" preserveAspectRatio="none" style="width:1495px;height:678px;" version="1.1" viewBox="0 0 1495 678" width="1495px" zoomAndPan="magnify"><defs><filter height="300%" id="f1p5gdiqliy11q" width="300%" x="-1" y="-1"><feGaussianBlur result="blurOut" stdDeviation="2.0"/><feColorMatrix in="blurOut" result="blurOut2" type="matrix" values="0 0 0 0 0 0 0 0 0 0 0 0 0 0 0 0 0 0 .4 0"/><feOffset dx="4.0" dy="4.0" in="blurOut2" result="blurOut3"/><feBlend in="SourceGraphic" in2="blurOut3" mode="normal"/></filter></defs><g><!--cluster de.gematik.ti.healthcard.control.events.healthcard--><polygon fill="#FFFFFF" filter="url(#f1p5gdiqliy11q)" points="22,148,383,148,390,171.6094,1473,171.6094,1473,666,22,666,22,148" style="stroke: #000000; stroke-width: 1.5;"/><line style="stroke: #000000; stroke-width: 1.5;" x1="22" x2="390" y1="171.6094" y2="171.6094"/><text fill="#000000" font-family="sans-serif" font-size="14" font-weight="bold" lengthAdjust="spacingAndGlyphs" textLength="355" x="26" y="164.5332">de.gematik.ti.healthcard.control.events.healthcard</text><!--cluster de.gematik.ti.healthcard.control.events.healthcard.absent--><polygon fill="#FFFFFF" filter="url(#f1p5gdiqliy11q)" points="46,284,459,284,466,307.6094,1449,307.6094,1449,642,46,642,46,284" style="stroke: #000000; stroke-width: 1.5;"/><line style="stroke: #000000; stroke-width: 1.5;" x1="46" x2="466" y1="307.6094" y2="307.6094"/><text fill="#000000" font-family="sans-serif" font-size="14" font-weight="bold" lengthAdjust="spacingAndGlyphs" textLength="407" x="50" y="300.5332">de.gematik.ti.healthcard.control.events.healthcard.absent</text><!--cluster de.gematik.ti.cardreader.provider.api.events--><polygon fill="#FFFFFF" filter="url(#f1p5gdiqliy11q)" points="803,24,1124,24,1131,47.6094,1134,47.6094,1134,124,803,124,803,24" style="stroke: #000000; stroke-width: 1.5;"/><line style="stroke: #000000; stroke-width: 1.5;" x1="803" x2="1131" y1="47.6094" y2="47.6094"/><text fill="#000000" font-family="sans-serif" font-size="14" font-weight="bold" lengthAdjust="spacingAndGlyphs" textLength="315" x="807" y="40.5332">de.gematik.ti.cardreader.provider.api.events</text><!--class AbstractHealthCardEvent--><rect fill="#FEFECE" filter="url(#f1p5gdiqliy11q)" height="75.6719" id="AbstractHealthCardEvent" style="stroke: #A80036; stroke-width: 1.5;" width="171" x="882.5" y="184"/><ellipse cx="897.5" cy="200" fill="#A9DCDF" rx="11" ry="11" style="stroke: #A80036; stroke-width: 1.0;"/><path d="M899.25,201.5 L895.9531,201.5 L895.5156,202.5 L895.5156,202.5 L895.9844,202.5 L896.5,203.125 L896.5,203.5 L896.5,203.875 L895.9844,204.5 L895.5156,204.5 L893.625,204.5 L893.0156,204.5 L892.5,203.875 L892.5,203.5 L892.5,203.125 L893.0156,202.5 L893.625,202.5 L895.9375,196.5 L895.0625,196.5 L894.0156,196.5 L893.5,195.875 L893.5,195.5 L893.5,195.125 L894.0156,194.5 L895.0625,194.5 L898.7344,194.5 L901.4219,202.5 L901.9844,202.5 L901.9844,202.5 L902.5,203.125 L902.5,203.5 L902.5,203.875 L901.9844,204.5 L901.4219,204.5 L899.5313,204.5 L899.0156,204.5 L898.5,203.875 L898.5,203.5 L898.5,203.125 L899.0156,202.5 L899.5313,202.5 L899.5313,202.5 L899.25,201.5 Z M898.7031,199.5 L897.5,195.9219 L896.4688,199.5 L898.7031,199.5 Z "/><text fill="#000000" font-family="sans-serif" font-size="12" font-style="italic" lengthAdjust="spacingAndGlyphs" textLength="139" x="911.5" y="204.9102">AbstractHealthCardEvent</text><line style="stroke: #A80036; stroke-width: 1.5;" x1="883.5" x2="1052.5" y1="216" y2="216"/><line style="stroke: #A80036; stroke-width: 1.5;" x1="883.5" x2="1052.5" y1="224" y2="224"/><polygon fill="#FFFF44" points="893.5,231.418,897.5,235.418,893.5,239.418,889.5,235.418" style="stroke: #B38D22; stroke-width: 1.0;"/><text fill="#000000" font-family="sans-serif" font-size="11" lengthAdjust="spacingAndGlyphs" textLength="130" x="902.5" y="239.4189">AbstractHealthCardEvent()</text><ellipse cx="893.5" cy="250.2539" fill="#84BE84" rx="3" ry="3" style="stroke: #038048; stroke-width: 1.0;"/><text fill="#000000" font-family="sans-serif" font-size="11" lengthAdjust="spacingAndGlyphs" textLength="76" x="902.5" y="253.2549">getHealthCard()</text><!--class AbstractEgkHealthCardAbsentEvent--><rect fill="#FEFECE" filter="url(#f1p5gdiqliy11q)" height="61.8359" id="AbstractEgkHealthCardAbsentEvent" style="stroke: #A80036; stroke-width: 1.5;" width="232" x="986" y="442"/><ellipse cx="1001" cy="458" fill="#A9DCDF" rx="11" ry="11" style="stroke: #A80036; stroke-width: 1.0;"/><path d="M1002.75,459.5 L999.4531,459.5 L999.0156,460.5 L999.0156,460.5 L999.4844,460.5 L1000,461.125 L1000,461.5 L1000,461.875 L999.4844,462.5 L999.0156,462.5 L997.125,462.5 L996.5156,462.5 L996,461.875 L996,461.5 L996,461.125 L996.5156,460.5 L997.125,460.5 L999.4375,454.5 L998.5625,454.5 L997.5156,454.5 L997,453.875 L997,453.5 L997,453.125 L997.5156,452.5 L998.5625,452.5 L1002.2344,452.5 L1004.9219,460.5 L1005.4844,460.5 L1005.4844,460.5 L1006,461.125 L1006,461.5 L1006,461.875 L1005.4844,462.5 L1004.9219,462.5 L1003.0313,462.5 L1002.5156,462.5 L1002,461.875 L1002,461.5 L1002,461.125 L1002.5156,460.5 L1003.0313,460.5 L1003.0313,460.5 L1002.75,459.5 Z M1002.2031,457.5 L1001,453.9219 L999.9688,457.5 L1002.2031,457.5 Z "/><text fill="#000000" font-family="sans-serif" font-size="12" font-style="italic" lengthAdjust="spacingAndGlyphs" textLength="200" x="1015" y="462.9102">AbstractEgkHealthCardAbsentEvent</text><line style="stroke: #A80036; stroke-width: 1.5;" x1="987" x2="1217" y1="474" y2="474"/><line style="stroke: #A80036; stroke-width: 1.5;" x1="987" x2="1217" y1="482" y2="482"/><polygon fill="#FFFF44" points="997,489.418,1001,493.418,997,497.418,993,493.418" style="stroke: #B38D22; stroke-width: 1.0;"/><text fill="#000000" font-family="sans-serif" font-size="11" lengthAdjust="spacingAndGlyphs" textLength="182" x="1006" y="497.4189">AbstractEgkHealthCardAbsentEvent()</text><!--class AbstractHbaHealthCardAbsentEvent--><rect fill="#FEFECE" filter="url(#f1p5gdiqliy11q)" height="61.8359" id="AbstractHbaHealthCardAbsentEvent" style="stroke: #A80036; stroke-width: 1.5;" width="234" x="717" y="442"/><ellipse cx="732" cy="458" fill="#A9DCDF" rx="11" ry="11" style="stroke: #A80036; stroke-width: 1.0;"/><path d="M733.75,459.5 L730.4531,459.5 L730.0156,460.5 L730.0156,460.5 L730.4844,460.5 L731,461.125 L731,461.5 L731,461.875 L730.4844,462.5 L730.0156,462.5 L728.125,462.5 L727.5156,462.5 L727,461.875 L727,461.5 L727,461.125 L727.5156,460.5 L728.125,460.5 L730.4375,454.5 L729.5625,454.5 L728.5156,454.5 L728,453.875 L728,453.5 L728,453.125 L728.5156,452.5 L729.5625,452.5 L733.2344,452.5 L735.9219,460.5 L736.4844,460.5 L736.4844,460.5 L737,461.125 L737,461.5 L737,461.875 L736.4844,462.5 L735.9219,462.5 L734.0313,462.5 L733.5156,462.5 L733,461.875 L733,461.5 L733,461.125 L733.5156,460.5 L734.0313,460.5 L734.0313,460.5 L733.75,459.5 Z M733.2031,457.5 L732,453.9219 L730.9688,457.5 L733.2031,457.5 Z "/><text fill="#000000" font-family="sans-serif" font-size="12" font-style="italic" lengthAdjust="spacingAndGlyphs" textLength="202" x="746" y="462.9102">AbstractHbaHealthCardAbsentEvent</text><line style="stroke: #A80036; stroke-width: 1.5;" x1="718" x2="950" y1="474" y2="474"/><line style="stroke: #A80036; stroke-width: 1.5;" x1="718" x2="950" y1="482" y2="482"/><polygon fill="#FFFF44" points="728,489.418,732,493.418,728,497.418,724,493.418" style="stroke: #B38D22; stroke-width: 1.0;"/><text fill="#000000" font-family="sans-serif" font-size="11" lengthAdjust="spacingAndGlyphs" textLength="184" x="737" y="497.4189">AbstractHbaHealthCardAbsentEvent()</text><!--class AbstractHealthCardAbsentEvent--><rect fill="#FEFECE" filter="url(#f1p5gdiqliy11q)" height="61.8359" id="AbstractHealthCardAbsentEvent" style="stroke: #A80036; stroke-width: 1.5;" width="210" x="863" y="320"/><ellipse cx="878" cy="336" fill="#A9DCDF" rx="11" ry="11" style="stroke: #A80036; stroke-width: 1.0;"/><path d="M879.75,337.5 L876.4531,337.5 L876.0156,338.5 L876.0156,338.5 L876.4844,338.5 L877,339.125 L877,339.5 L877,339.875 L876.4844,340.5 L876.0156,340.5 L874.125,340.5 L873.5156,340.5 L873,339.875 L873,339.5 L873,339.125 L873.5156,338.5 L874.125,338.5 L876.4375,332.5 L875.5625,332.5 L874.5156,332.5 L874,331.875 L874,331.5 L874,331.125 L874.5156,330.5 L875.5625,330.5 L879.2344,330.5 L881.9219,338.5 L882.4844,338.5 L882.4844,338.5 L883,339.125 L883,339.5 L883,339.875 L882.4844,340.5 L881.9219,340.5 L880.0313,340.5 L879.5156,340.5 L879,339.875 L879,339.5 L879,339.125 L879.5156,338.5 L880.0313,338.5 L880.0313,338.5 L879.75,337.5 Z M879.2031,335.5 L878,331.9219 L876.9688,335.5 L879.2031,335.5 Z "/><text fill="#000000" font-family="sans-serif" font-size="12" font-style="italic" lengthAdjust="spacingAndGlyphs" textLength="178" x="892" y="340.9102">AbstractHealthCardAbsentEvent</text><line style="stroke: #A80036; stroke-width: 1.5;" x1="864" x2="1072" y1="352" y2="352"/><line style="stroke: #A80036; stroke-width: 1.5;" x1="864" x2="1072" y1="360" y2="360"/><polygon fill="#FFFF44" points="874,367.418,878,371.418,874,375.418,870,371.418" style="stroke: #B38D22; stroke-width: 1.0;"/><text fill="#000000" font-family="sans-serif" font-size="11" lengthAdjust="spacingAndGlyphs" textLength="165" x="883" y="375.4189">AbstractHealthCardAbsentEvent()</text><!--class AbstractSmcbHealthCardAbsentEvent--><rect fill="#FEFECE" filter="url(#f1p5gdiqliy11q)" height="61.8359" id="AbstractSmcbHealthCardAbsentEvent" style="stroke: #A80036; stroke-width: 1.5;" width="243" x="286.5" y="442"/><ellipse cx="301.5" cy="458" fill="#A9DCDF" rx="11" ry="11" style="stroke: #A80036; stroke-width: 1.0;"/><path d="M303.25,459.5 L299.9531,459.5 L299.5156,460.5 L299.5156,460.5 L299.9844,460.5 L300.5,461.125 L300.5,461.5 L300.5,461.875 L299.9844,462.5 L299.5156,462.5 L297.625,462.5 L297.0156,462.5 L296.5,461.875 L296.5,461.5 L296.5,461.125 L297.0156,460.5 L297.625,460.5 L299.9375,454.5 L299.0625,454.5 L298.0156,454.5 L297.5,453.875 L297.5,453.5 L297.5,453.125 L298.0156,452.5 L299.0625,452.5 L302.7344,452.5 L305.4219,460.5 L305.9844,460.5 L305.9844,460.5 L306.5,461.125 L306.5,461.5 L306.5,461.875 L305.9844,462.5 L305.4219,462.5 L303.5313,462.5 L303.0156,462.5 L302.5,461.875 L302.5,461.5 L302.5,461.125 L303.0156,460.5 L303.5313,460.5 L303.5313,460.5 L303.25,459.5 Z M302.7031,457.5 L301.5,453.9219 L300.4688,457.5 L302.7031,457.5 Z "/><text fill="#000000" font-family="sans-serif" font-size="12" font-style="italic" lengthAdjust="spacingAndGlyphs" textLength="211" x="315.5" y="462.9102">AbstractSmcbHealthCardAbsentEvent</text><line style="stroke: #A80036; stroke-width: 1.5;" x1="287.5" x2="528.5" y1="474" y2="474"/><line style="stroke: #A80036; stroke-width: 1.5;" x1="287.5" x2="528.5" y1="482" y2="482"/><polygon fill="#FFFF44" points="297.5,489.418,301.5,493.418,297.5,497.418,293.5,493.418" style="stroke: #B38D22; stroke-width: 1.0;"/><text fill="#000000" font-family="sans-serif" font-size="11" lengthAdjust="spacingAndGlyphs" textLength="192" x="306.5" y="497.4189">AbstractSmcbHealthCardAbsentEvent()</text><!--class Egk21HealthCardAbsentEvent--><rect fill="#FEFECE" filter="url(#f1p5gdiqliy11q)" height="61.8359" id="Egk21HealthCardAbsentEvent" style="stroke: #A80036; stroke-width: 1.5;" width="198" x="1008" y="564"/><ellipse cx="1023" cy="580" fill="#ADD1B2" rx="11" ry="11" style="stroke: #A80036; stroke-width: 1.0;"/><path d="M1025,576.5 Q1025.2031,576 1025.4375,575.75 Q1025.6719,575.5 1025.9375,575.5 Q1026.4063,575.5 1026.7031,575.7813 Q1027,576.0625 1027,576.7188 L1027,578.2813 Q1027,578.9375 1026.7188,579.2188 Q1026.4375,579.5 1026,579.5 Q1025.6094,579.5 1025.3594,579.3281 Q1025.1094,579.1563 1025,578.7031 Q1024.9531,578.3906 1024.7813,578.2188 Q1024.4688,577.8906 1023.9063,577.7031 Q1023.3438,577.5 1022.7813,577.5 Q1022.0781,577.5 1021.4844,577.7813 Q1020.9063,578.0625 1020.4531,578.6875 Q1020,579.3125 1020,580.1719 L1020,581.0938 Q1020,582.125 1020.8438,582.8125 Q1021.6875,583.5 1023.1875,583.5 Q1024.0781,583.5 1024.7031,583.2969 Q1025.0625,583.1875 1025.4688,582.8281 Q1025.7344,582.625 1025.875,582.5625 Q1026.0156,582.5 1026.1875,582.5 Q1026.5156,582.5 1026.75,582.7656 Q1027,583.0156 1027,583.375 Q1027,583.7188 1026.6563,584.125 Q1026.1563,584.7188 1025.3594,585.0469 Q1024.3125,585.5 1023.0313,585.5 Q1021.5313,585.5 1020.3281,584.9063 Q1019.3594,584.4375 1018.6719,583.4219 Q1018,582.4063 1018,581.2031 L1018,580.1094 Q1018,578.8594 1018.5938,577.7656 Q1019.2031,576.6719 1020.25,576.0938 Q1021.3125,575.5 1022.5,575.5 Q1023.2188,575.5 1023.8438,575.75 Q1024.4688,576 1025,576.5 Z "/><text fill="#000000" font-family="sans-serif" font-size="12" lengthAdjust="spacingAndGlyphs" textLength="166" x="1037" y="584.9102">Egk21HealthCardAbsentEvent</text><line style="stroke: #A80036; stroke-width: 1.5;" x1="1009" x2="1205" y1="596" y2="596"/><line style="stroke: #A80036; stroke-width: 1.5;" x1="1009" x2="1205" y1="604" y2="604"/><ellipse cx="1019" cy="616.418" fill="#84BE84" rx="3" ry="3" style="stroke: #038048; stroke-width: 1.0;"/><text fill="#000000" font-family="sans-serif" font-size="11" lengthAdjust="spacingAndGlyphs" textLength="152" x="1028" y="619.4189">Egk21HealthCardAbsentEvent()</text><!--class Egk2HealthCardAbsentEvent--><rect fill="#FEFECE" filter="url(#f1p5gdiqliy11q)" height="61.8359" id="Egk2HealthCardAbsentEvent" style="stroke: #A80036; stroke-width: 1.5;" width="191" x="1241.5" y="564"/><ellipse cx="1256.5" cy="580" fill="#ADD1B2" rx="11" ry="11" style="stroke: #A80036; stroke-width: 1.0;"/><path d="M1258.5,576.5 Q1258.7031,576 1258.9375,575.75 Q1259.1719,575.5 1259.4375,575.5 Q1259.9063,575.5 1260.2031,575.7813 Q1260.5,576.0625 1260.5,576.7188 L1260.5,578.2813 Q1260.5,578.9375 1260.2188,579.2188 Q1259.9375,579.5 1259.5,579.5 Q1259.1094,579.5 1258.8594,579.3281 Q1258.6094,579.1563 1258.5,578.7031 Q1258.4531,578.3906 1258.2813,578.2188 Q1257.9688,577.8906 1257.4063,577.7031 Q1256.8438,577.5 1256.2813,577.5 Q1255.5781,577.5 1254.9844,577.7813 Q1254.4063,578.0625 1253.9531,578.6875 Q1253.5,579.3125 1253.5,580.1719 L1253.5,581.0938 Q1253.5,582.125 1254.3438,582.8125 Q1255.1875,583.5 1256.6875,583.5 Q1257.5781,583.5 1258.2031,583.2969 Q1258.5625,583.1875 1258.9688,582.8281 Q1259.2344,582.625 1259.375,582.5625 Q1259.5156,582.5 1259.6875,582.5 Q1260.0156,582.5 1260.25,582.7656 Q1260.5,583.0156 1260.5,583.375 Q1260.5,583.7188 1260.1563,584.125 Q1259.6563,584.7188 1258.8594,585.0469 Q1257.8125,585.5 1256.5313,585.5 Q1255.0313,585.5 1253.8281,584.9063 Q1252.8594,584.4375 1252.1719,583.4219 Q1251.5,582.4063 1251.5,581.2031 L1251.5,580.1094 Q1251.5,578.8594 1252.0938,577.7656 Q1252.7031,576.6719 1253.75,576.0938 Q1254.8125,575.5 1256,575.5 Q1256.7188,575.5 1257.3438,575.75 Q1257.9688,576 1258.5,576.5 Z "/><text fill="#000000" font-family="sans-serif" font-size="12" lengthAdjust="spacingAndGlyphs" textLength="159" x="1270.5" y="584.9102">Egk2HealthCardAbsentEvent</text><line style="stroke: #A80036; stroke-width: 1.5;" x1="1242.5" x2="1431.5" y1="596" y2="596"/><line style="stroke: #A80036; stroke-width: 1.5;" x1="1242.5" x2="1431.5" y1="604" y2="604"/><ellipse cx="1252.5" cy="616.418" fill="#84BE84" rx="3" ry="3" style="stroke: #038048; stroke-width: 1.0;"/><text fill="#000000" font-family="sans-serif" font-size="11" lengthAdjust="spacingAndGlyphs" textLength="146" x="1261.5" y="619.4189">Egk2HealthCardAbsentEvent()</text><!--class Hba21HealthCardAbsentEvent--><rect fill="#FEFECE" filter="url(#f1p5gdiqliy11q)" height="61.8359" id="Hba21HealthCardAbsentEvent" style="stroke: #A80036; stroke-width: 1.5;" width="200" x="544" y="564"/><ellipse cx="559" cy="580" fill="#ADD1B2" rx="11" ry="11" style="stroke: #A80036; stroke-width: 1.0;"/><path d="M561,576.5 Q561.2031,576 561.4375,575.75 Q561.6719,575.5 561.9375,575.5 Q562.4063,575.5 562.7031,575.7813 Q563,576.0625 563,576.7188 L563,578.2813 Q563,578.9375 562.7188,579.2188 Q562.4375,579.5 562,579.5 Q561.6094,579.5 561.3594,579.3281 Q561.1094,579.1563 561,578.7031 Q560.9531,578.3906 560.7813,578.2188 Q560.4688,577.8906 559.9063,577.7031 Q559.3438,577.5 558.7813,577.5 Q558.0781,577.5 557.4844,577.7813 Q556.9063,578.0625 556.4531,578.6875 Q556,579.3125 556,580.1719 L556,581.0938 Q556,582.125 556.8438,582.8125 Q557.6875,583.5 559.1875,583.5 Q560.0781,583.5 560.7031,583.2969 Q561.0625,583.1875 561.4688,582.8281 Q561.7344,582.625 561.875,582.5625 Q562.0156,582.5 562.1875,582.5 Q562.5156,582.5 562.75,582.7656 Q563,583.0156 563,583.375 Q563,583.7188 562.6563,584.125 Q562.1563,584.7188 561.3594,585.0469 Q560.3125,585.5 559.0313,585.5 Q557.5313,585.5 556.3281,584.9063 Q555.3594,584.4375 554.6719,583.4219 Q554,582.4063 554,581.2031 L554,580.1094 Q554,578.8594 554.5938,577.7656 Q555.2031,576.6719 556.25,576.0938 Q557.3125,575.5 558.5,575.5 Q559.2188,575.5 559.8438,575.75 Q560.4688,576 561,576.5 Z "/><text fill="#000000" font-family="sans-serif" font-size="12" lengthAdjust="spacingAndGlyphs" textLength="168" x="573" y="584.9102">Hba21HealthCardAbsentEvent</text><line style="stroke: #A80036; stroke-width: 1.5;" x1="545" x2="743" y1="596" y2="596"/><line style="stroke: #A80036; stroke-width: 1.5;" x1="545" x2="743" y1="604" y2="604"/><ellipse cx="555" cy="616.418" fill="#84BE84" rx="3" ry="3" style="stroke: #038048; stroke-width: 1.0;"/><text fill="#000000" font-family="sans-serif" font-size="11" lengthAdjust="spacingAndGlyphs" textLength="154" x="564" y="619.4189">Hba21HealthCardAbsentEvent()</text><!--class Hba2HealthCardAbsentEvent--><rect fill="#FEFECE" filter="url(#f1p5gdiqliy11q)" height="61.8359" id="Hba2HealthCardAbsentEvent" style="stroke: #A80036; stroke-width: 1.5;" width="193" x="779.5" y="564"/><ellipse cx="794.5" cy="580" fill="#ADD1B2" rx="11" ry="11" style="stroke: #A80036; stroke-width: 1.0;"/><path d="M796.5,576.5 Q796.7031,576 796.9375,575.75 Q797.1719,575.5 797.4375,575.5 Q797.9063,575.5 798.2031,575.7813 Q798.5,576.0625 798.5,576.7188 L798.5,578.2813 Q798.5,578.9375 798.2188,579.2188 Q797.9375,579.5 797.5,579.5 Q797.1094,579.5 796.8594,579.3281 Q796.6094,579.1563 796.5,578.7031 Q796.4531,578.3906 796.2813,578.2188 Q795.9688,577.8906 795.4063,577.7031 Q794.8438,577.5 794.2813,577.5 Q793.5781,577.5 792.9844,577.7813 Q792.4063,578.0625 791.9531,578.6875 Q791.5,579.3125 791.5,580.1719 L791.5,581.0938 Q791.5,582.125 792.3438,582.8125 Q793.1875,583.5 794.6875,583.5 Q795.5781,583.5 796.2031,583.2969 Q796.5625,583.1875 796.9688,582.8281 Q797.2344,582.625 797.375,582.5625 Q797.5156,582.5 797.6875,582.5 Q798.0156,582.5 798.25,582.7656 Q798.5,583.0156 798.5,583.375 Q798.5,583.7188 798.1563,584.125 Q797.6563,584.7188 796.8594,585.0469 Q795.8125,585.5 794.5313,585.5 Q793.0313,585.5 791.8281,584.9063 Q790.8594,584.4375 790.1719,583.4219 Q789.5,582.4063 789.5,581.2031 L789.5,580.1094 Q789.5,578.8594 790.0938,577.7656 Q790.7031,576.6719 791.75,576.0938 Q792.8125,575.5 794,575.5 Q794.7188,575.5 795.3438,575.75 Q795.9688,576 796.5,576.5 Z "/><text fill="#000000" font-family="sans-serif" font-size="12" lengthAdjust="spacingAndGlyphs" textLength="161" x="808.5" y="584.9102">Hba2HealthCardAbsentEvent</text><line style="stroke: #A80036; stroke-width: 1.5;" x1="780.5" x2="971.5" y1="596" y2="596"/><line style="stroke: #A80036; stroke-width: 1.5;" x1="780.5" x2="971.5" y1="604" y2="604"/><ellipse cx="790.5" cy="616.418" fill="#84BE84" rx="3" ry="3" style="stroke: #038048; stroke-width: 1.0;"/><text fill="#000000" font-family="sans-serif" font-size="11" lengthAdjust="spacingAndGlyphs" textLength="148" x="799.5" y="619.4189">Hba2HealthCardAbsentEvent()</text><!--class Smcb21HealthCardAbsentEvent--><rect fill="#FEFECE" filter="url(#f1p5gdiqliy11q)" height="61.8359" id="Smcb21HealthCardAbsentEvent" style="stroke: #A80036; stroke-width: 1.5;" width="209" x="62.5" y="564"/><ellipse cx="77.5" cy="580" fill="#ADD1B2" rx="11" ry="11" style="stroke: #A80036; stroke-width: 1.0;"/><path d="M79.5,576.5 Q79.7031,576 79.9375,575.75 Q80.1719,575.5 80.4375,575.5 Q80.9063,575.5 81.2031,575.7813 Q81.5,576.0625 81.5,576.7188 L81.5,578.2813 Q81.5,578.9375 81.2188,579.2188 Q80.9375,579.5 80.5,579.5 Q80.1094,579.5 79.8594,579.3281 Q79.6094,579.1563 79.5,578.7031 Q79.4531,578.3906 79.2813,578.2188 Q78.9688,577.8906 78.4063,577.7031 Q77.8438,577.5 77.2813,577.5 Q76.5781,577.5 75.9844,577.7813 Q75.4063,578.0625 74.9531,578.6875 Q74.5,579.3125 74.5,580.1719 L74.5,581.0938 Q74.5,582.125 75.3438,582.8125 Q76.1875,583.5 77.6875,583.5 Q78.5781,583.5 79.2031,583.2969 Q79.5625,583.1875 79.9688,582.8281 Q80.2344,582.625 80.375,582.5625 Q80.5156,582.5 80.6875,582.5 Q81.0156,582.5 81.25,582.7656 Q81.5,583.0156 81.5,583.375 Q81.5,583.7188 81.1563,584.125 Q80.6563,584.7188 79.8594,585.0469 Q78.8125,585.5 77.5313,585.5 Q76.0313,585.5 74.8281,584.9063 Q73.8594,584.4375 73.1719,583.4219 Q72.5,582.4063 72.5,581.2031 L72.5,580.1094 Q72.5,578.8594 73.0938,577.7656 Q73.7031,576.6719 74.75,576.0938 Q75.8125,575.5 77,575.5 Q77.7188,575.5 78.3438,575.75 Q78.9688,576 79.5,576.5 Z "/><text fill="#000000" font-family="sans-serif" font-size="12" lengthAdjust="spacingAndGlyphs" textLength="177" x="91.5" y="584.9102">Smcb21HealthCardAbsentEvent</text><line style="stroke: #A80036; stroke-width: 1.5;" x1="63.5" x2="270.5" y1="596" y2="596"/><line style="stroke: #A80036; stroke-width: 1.5;" x1="63.5" x2="270.5" y1="604" y2="604"/><ellipse cx="73.5" cy="616.418" fill="#84BE84" rx="3" ry="3" style="stroke: #038048; stroke-width: 1.0;"/><text fill="#000000" font-family="sans-serif" font-size="11" lengthAdjust="spacingAndGlyphs" textLength="162" x="82.5" y="619.4189">Smcb21HealthCardAbsentEvent()</text><!--class Smcb2HealthCardAbsentEvent--><rect fill="#FEFECE" filter="url(#f1p5gdiqliy11q)" height="61.8359" id="Smcb2HealthCardAbsentEvent" style="stroke: #A80036; stroke-width: 1.5;" width="202" x="307" y="564"/><ellipse cx="322" cy="580" fill="#ADD1B2" rx="11" ry="11" style="stroke: #A80036; stroke-width: 1.0;"/><path d="M324,576.5 Q324.2031,576 324.4375,575.75 Q324.6719,575.5 324.9375,575.5 Q325.4063,575.5 325.7031,575.7813 Q326,576.0625 326,576.7188 L326,578.2813 Q326,578.9375 325.7188,579.2188 Q325.4375,579.5 325,579.5 Q324.6094,579.5 324.3594,579.3281 Q324.1094,579.1563 324,578.7031 Q323.9531,578.3906 323.7813,578.2188 Q323.4688,577.8906 322.9063,577.7031 Q322.3438,577.5 321.7813,577.5 Q321.0781,577.5 320.4844,577.7813 Q319.9063,578.0625 319.4531,578.6875 Q319,579.3125 319,580.1719 L319,581.0938 Q319,582.125 319.8438,582.8125 Q320.6875,583.5 322.1875,583.5 Q323.0781,583.5 323.7031,583.2969 Q324.0625,583.1875 324.4688,582.8281 Q324.7344,582.625 324.875,582.5625 Q325.0156,582.5 325.1875,582.5 Q325.5156,582.5 325.75,582.7656 Q326,583.0156 326,583.375 Q326,583.7188 325.6563,584.125 Q325.1563,584.7188 324.3594,585.0469 Q323.3125,585.5 322.0313,585.5 Q320.5313,585.5 319.3281,584.9063 Q318.3594,584.4375 317.6719,583.4219 Q317,582.4063 317,581.2031 L317,580.1094 Q317,578.8594 317.5938,577.7656 Q318.2031,576.6719 319.25,576.0938 Q320.3125,575.5 321.5,575.5 Q322.2188,575.5 322.8438,575.75 Q323.4688,576 324,576.5 Z "/><text fill="#000000" font-family="sans-serif" font-size="12" lengthAdjust="spacingAndGlyphs" textLength="170" x="336" y="584.9102">Smcb2HealthCardAbsentEvent</text><line style="stroke: #A80036; stroke-width: 1.5;" x1="308" x2="508" y1="596" y2="596"/><line style="stroke: #A80036; stroke-width: 1.5;" x1="308" x2="508" y1="604" y2="604"/><ellipse cx="318" cy="616.418" fill="#84BE84" rx="3" ry="3" style="stroke: #038048; stroke-width: 1.0;"/><text fill="#000000" font-family="sans-serif" font-size="11" lengthAdjust="spacingAndGlyphs" textLength="156" x="327" y="619.4189">Smcb2HealthCardAbsentEvent()</text><!--class UnknownCardAbsentEvent--><rect fill="#FEFECE" filter="url(#f1p5gdiqliy11q)" height="61.8359" id="UnknownCardAbsentEvent" style="stroke: #A80036; stroke-width: 1.5;" width="179" x="1253.5" y="442"/><ellipse cx="1268.5" cy="458" fill="#ADD1B2" rx="11" ry="11" style="stroke: #A80036; stroke-width: 1.0;"/><path d="M1270.5,454.5 Q1270.7031,454 1270.9375,453.75 Q1271.1719,453.5 1271.4375,453.5 Q1271.9063,453.5 1272.2031,453.7813 Q1272.5,454.0625 1272.5,454.7188 L1272.5,456.2813 Q1272.5,456.9375 1272.2188,457.2188 Q1271.9375,457.5 1271.5,457.5 Q1271.1094,457.5 1270.8594,457.3281 Q1270.6094,457.1563 1270.5,456.7031 Q1270.4531,456.3906 1270.2813,456.2188 Q1269.9688,455.8906 1269.4063,455.7031 Q1268.8438,455.5 1268.2813,455.5 Q1267.5781,455.5 1266.9844,455.7813 Q1266.4063,456.0625 1265.9531,456.6875 Q1265.5,457.3125 1265.5,458.1719 L1265.5,459.0938 Q1265.5,460.125 1266.3438,460.8125 Q1267.1875,461.5 1268.6875,461.5 Q1269.5781,461.5 1270.2031,461.2969 Q1270.5625,461.1875 1270.9688,460.8281 Q1271.2344,460.625 1271.375,460.5625 Q1271.5156,460.5 1271.6875,460.5 Q1272.0156,460.5 1272.25,460.7656 Q1272.5,461.0156 1272.5,461.375 Q1272.5,461.7188 1272.1563,462.125 Q1271.6563,462.7188 1270.8594,463.0469 Q1269.8125,463.5 1268.5313,463.5 Q1267.0313,463.5 1265.8281,462.9063 Q1264.8594,462.4375 1264.1719,461.4219 Q1263.5,460.4063 1263.5,459.2031 L1263.5,458.1094 Q1263.5,456.8594 1264.0938,455.7656 Q1264.7031,454.6719 1265.75,454.0938 Q1266.8125,453.5 1268,453.5 Q1268.7188,453.5 1269.3438,453.75 Q1269.9688,454 1270.5,454.5 Z "/><text fill="#000000" font-family="sans-serif" font-size="12" lengthAdjust="spacingAndGlyphs" textLength="147" x="1282.5" y="462.9102">UnknownCardAbsentEvent</text><line style="stroke: #A80036; stroke-width: 1.5;" x1="1254.5" x2="1431.5" y1="474" y2="474"/><line style="stroke: #A80036; stroke-width: 1.5;" x1="1254.5" x2="1431.5" y1="482" y2="482"/><ellipse cx="1264.5" cy="494.418" fill="#84BE84" rx="3" ry="3" style="stroke: #038048; stroke-width: 1.0;"/><text fill="#000000" font-family="sans-serif" font-size="11" lengthAdjust="spacingAndGlyphs" textLength="139" x="1273.5" y="497.4189">UnknownCardAbsentEvent()</text><!--class AbstractCardReaderEvent--><rect fill="#FEFECE" filter="url(#f1p5gdiqliy11q)" height="48" id="AbstractCardReaderEvent" style="stroke: #A80036; stroke-width: 1.5;" width="176" x="880" y="60"/><ellipse cx="895" cy="76" fill="#A9DCDF" rx="11" ry="11" style="stroke: #A80036; stroke-width: 1.0;"/><path d="M896.75,77.5 L893.4531,77.5 L893.0156,78.5 L893.0156,78.5 L893.4844,78.5 L894,79.125 L894,79.5 L894,79.875 L893.4844,80.5 L893.0156,80.5 L891.125,80.5 L890.5156,80.5 L890,79.875 L890,79.5 L890,79.125 L890.5156,78.5 L891.125,78.5 L893.4375,72.5 L892.5625,72.5 L891.5156,72.5 L891,71.875 L891,71.5 L891,71.125 L891.5156,70.5 L892.5625,70.5 L896.2344,70.5 L898.9219,78.5 L899.4844,78.5 L899.4844,78.5 L900,79.125 L900,79.5 L900,79.875 L899.4844,80.5 L898.9219,80.5 L897.0313,80.5 L896.5156,80.5 L896,79.875 L896,79.5 L896,79.125 L896.5156,78.5 L897.0313,78.5 L897.0313,78.5 L896.75,77.5 Z M896.2031,75.5 L895,71.9219 L893.9688,75.5 L896.2031,75.5 Z "/><text fill="#000000" font-family="sans-serif" font-size="12" font-style="italic" lengthAdjust="spacingAndGlyphs" textLength="144" x="909" y="80.9102">AbstractCardReaderEvent</text><line style="stroke: #A80036; stroke-width: 1.5;" x1="881" x2="1055" y1="92" y2="92"/><line style="stroke: #A80036; stroke-width: 1.5;" x1="881" x2="1055" y1="100" y2="100"/><!--link AbstractCardReaderEvent to AbstractHealthCardEvent--><path d="M968,128.208 C968,146.133 968,166.72 968,183.941 " fill="none" id="AbstractCardReaderEvent-AbstractHealthCardEvent" style="stroke: #A80036; stroke-width: 1.0;"/><polygon fill="none" points="961,128.071,968,108.071,975,128.071,961,128.071" style="stroke: #A80036; stroke-width: 1.0;"/><!--link AbstractHealthCardAbsentEvent to AbstractEgkHealthCardAbsentEvent--><path d="M1016.85,395.75 C1033.9,411.017 1052.65,427.802 1068.2,441.729 " fill="none" id="AbstractHealthCardAbsentEvent-AbstractEgkHealthCardAbsentEvent" style="stroke: #A80036; stroke-width: 1.0;"/><polygon fill="none" points="1012.04,400.838,1001.814,382.281,1021.38,390.409,1012.04,400.838" style="stroke: #A80036; stroke-width: 1.0;"/><!--link AbstractHealthCardAbsentEvent to AbstractHbaHealthCardAbsentEvent--><path d="M919.146,395.75 C902.098,411.017 883.354,427.802 867.803,441.729 " fill="none" id="AbstractHealthCardAbsentEvent-AbstractHbaHealthCardAbsentEvent" style="stroke: #A80036; stroke-width: 1.0;"/><polygon fill="none" points="914.617,390.409,934.186,382.281,923.957,400.838,914.617,390.409" style="stroke: #A80036; stroke-width: 1.0;"/><!--link AbstractHealthCardEvent to AbstractHealthCardAbsentEvent--><path d="M968,280.23 C968,293.93 968,308.024 968,319.925 " fill="none" id="AbstractHealthCardEvent-AbstractHealthCardAbsentEvent" style="stroke: #A80036; stroke-width: 1.0;"/><polygon fill="none" points="961,280.075,968,260.075,975,280.075,961,280.075" style="stroke: #A80036; stroke-width: 1.0;"/><!--link AbstractHealthCardAbsentEvent to AbstractSmcbHealthCardAbsentEvent--><path d="M843.273,378.727 C749.715,398.775 622.334,426.071 529.553,445.953 " fill="none" id="AbstractHealthCardAbsentEvent-AbstractSmcbHealthCardAbsentEvent" style="stroke: #A80036; stroke-width: 1.0;"/><polygon fill="none" points="841.974,371.847,862.997,374.501,844.908,385.536,841.974,371.847" style="stroke: #A80036; stroke-width: 1.0;"/><!--link AbstractEgkHealthCardAbsentEvent to Egk21HealthCardAbsentEvent--><path d="M1104.1,524.373 C1104.66,537.754 1105.24,551.792 1105.74,563.729 " fill="none" id="AbstractEgkHealthCardAbsentEvent-Egk21HealthCardAbsentEvent" style="stroke: #A80036; stroke-width: 1.0;"/><polygon fill="none" points="1097.1,524.555,1103.26,504.281,1111.09,523.972,1097.1,524.555" style="stroke: #A80036; stroke-width: 1.0;"/><!--link AbstractEgkHealthCardAbsentEvent to Egk2HealthCardAbsentEvent--><path d="M1178.84,513.24 C1211.07,529.694 1247.94,548.525 1277.98,563.861 " fill="none" id="AbstractEgkHealthCardAbsentEvent-Egk2HealthCardAbsentEvent" style="stroke: #A80036; stroke-width: 1.0;"/><polygon fill="none" points="1175.63,519.456,1161,504.126,1181.99,506.988,1175.63,519.456" style="stroke: #A80036; stroke-width: 1.0;"/><!--link AbstractHbaHealthCardAbsentEvent to Hba21HealthCardAbsentEvent--><path d="M769.074,515.006 C743.659,531.058 715.041,549.132 691.6,563.937 " fill="none" id="AbstractHbaHealthCardAbsentEvent-Hba21HealthCardAbsentEvent" style="stroke: #A80036; stroke-width: 1.0;"/><polygon fill="none" points="765.407,509.043,786.055,504.281,772.883,520.879,765.407,509.043" style="stroke: #A80036; stroke-width: 1.0;"/><!--link AbstractHbaHealthCardAbsentEvent to Hba2HealthCardAbsentEvent--><path d="M851.296,523.418 C856.08,537.085 861.128,551.508 865.405,563.729 " fill="none" id="AbstractHbaHealthCardAbsentEvent-Hba2HealthCardAbsentEvent" style="stroke: #A80036; stroke-width: 1.0;"/><polygon fill="none" points="844.598,525.471,844.598,504.281,857.812,520.846,844.598,525.471" style="stroke: #A80036; stroke-width: 1.0;"/><!--link AbstractSmcbHealthCardAbsentEvent to Smcb21HealthCardAbsentEvent--><path d="M329.194,513.24 C296.147,529.694 258.33,548.525 227.528,563.861 " fill="none" id="AbstractSmcbHealthCardAbsentEvent-Smcb21HealthCardAbsentEvent" style="stroke: #A80036; stroke-width: 1.0;"/><polygon fill="none" points="326.473,506.775,347.497,504.126,332.713,519.307,326.473,506.775" style="stroke: #A80036; stroke-width: 1.0;"/><!--link AbstractSmcbHealthCardAbsentEvent to Smcb2HealthCardAbsentEvent--><path d="M408,524.373 C408,537.754 408,551.792 408,563.729 " fill="none" id="AbstractSmcbHealthCardAbsentEvent-Smcb2HealthCardAbsentEvent" style="stroke: #A80036; stroke-width: 1.0;"/><polygon fill="none" points="401,524.281,408,504.281,415,524.281,401,524.281" style="stroke: #A80036; stroke-width: 1.0;"/><!--link AbstractHealthCardAbsentEvent to UnknownCardAbsentEvent--><path d="M1081.55,388.335 C1136.62,405.957 1201.82,426.823 1253.34,443.309 " fill="none" id="AbstractHealthCardAbsentEvent-UnknownCardAbsentEvent" style="stroke: #A80036; stroke-width: 1.0;"/><polygon fill="none" points="1079.06,394.889,1062.14,382.126,1083.33,381.555,1079.06,394.889" style="stroke: #A80036; stroke-width: 1.0;"/><!--
@startuml

    package de.gematik.ti.healthcard.control.events.healthcard {
      package de.gematik.ti.healthcard.control.events.healthcard.absent {
        abstract class AbstractEgkHealthCardAbsentEvent {
            # AbstractEgkHealthCardAbsentEvent()
        }
      }
    }


    package de.gematik.ti.healthcard.control.events.healthcard {
      package de.gematik.ti.healthcard.control.events.healthcard.absent {
        abstract class AbstractHbaHealthCardAbsentEvent {
            # AbstractHbaHealthCardAbsentEvent()
        }
      }
    }


    package de.gematik.ti.healthcard.control.events.healthcard {
      package de.gematik.ti.healthcard.control.events.healthcard.absent {
        abstract class AbstractHealthCardAbsentEvent {
            # AbstractHealthCardAbsentEvent()
        }
      }
    }


    package de.gematik.ti.healthcard.control.events.healthcard {
      package de.gematik.ti.healthcard.control.events.healthcard.absent {
        abstract class AbstractSmcbHealthCardAbsentEvent {
            # AbstractSmcbHealthCardAbsentEvent()
        }
      }
    }


    package de.gematik.ti.healthcard.control.events.healthcard {
      package de.gematik.ti.healthcard.control.events.healthcard.absent {
        class Egk21HealthCardAbsentEvent {
            + Egk21HealthCardAbsentEvent()
        }
      }
    }


    package de.gematik.ti.healthcard.control.events.healthcard {
      package de.gematik.ti.healthcard.control.events.healthcard.absent {
        class Egk2HealthCardAbsentEvent {
            + Egk2HealthCardAbsentEvent()
        }
      }
    }


    package de.gematik.ti.healthcard.control.events.healthcard {
      package de.gematik.ti.healthcard.control.events.healthcard.absent {
        class Hba21HealthCardAbsentEvent {
            + Hba21HealthCardAbsentEvent()
        }
      }
    }


    package de.gematik.ti.healthcard.control.events.healthcard {
      package de.gematik.ti.healthcard.control.events.healthcard.absent {
        class Hba2HealthCardAbsentEvent {
            + Hba2HealthCardAbsentEvent()
        }
      }
    }


    package de.gematik.ti.healthcard.control.events.healthcard {
      package de.gematik.ti.healthcard.control.events.healthcard.absent {
        class Smcb21HealthCardAbsentEvent {
            + Smcb21HealthCardAbsentEvent()
        }
      }
    }


    package de.gematik.ti.healthcard.control.events.healthcard {
      package de.gematik.ti.healthcard.control.events.healthcard.absent {
        class Smcb2HealthCardAbsentEvent {
            + Smcb2HealthCardAbsentEvent()
        }
      }
    }


    package de.gematik.ti.healthcard.control.events.healthcard {
      package de.gematik.ti.healthcard.control.events.healthcard.absent {
        class UnknownCardAbsentEvent {
            + UnknownCardAbsentEvent()
        }
      }
    }

      package de.gematik.ti.healthcard.control.events.healthcard {
        abstract class AbstractHealthCardEvent {
            # AbstractHealthCardEvent()
            + getHealthCard()
        }
      }

  package de.gematik.ti.cardreader.provider.api.events {
    abstract class AbstractCardReaderEvent {
    }
  }

  AbstractHealthCardEvent -up-|> AbstractCardReaderEvent
  AbstractEgkHealthCardAbsentEvent -up-|> AbstractHealthCardAbsentEvent
  AbstractHbaHealthCardAbsentEvent -up-|> AbstractHealthCardAbsentEvent
  AbstractHealthCardAbsentEvent -up-|> AbstractHealthCardEvent
  AbstractSmcbHealthCardAbsentEvent -up-|> AbstractHealthCardAbsentEvent
  Egk21HealthCardAbsentEvent -up-|> AbstractEgkHealthCardAbsentEvent
  Egk2HealthCardAbsentEvent -up-|> AbstractEgkHealthCardAbsentEvent
  Hba21HealthCardAbsentEvent -up-|> AbstractHbaHealthCardAbsentEvent
  Hba2HealthCardAbsentEvent -up-|> AbstractHbaHealthCardAbsentEvent
  Smcb21HealthCardAbsentEvent -up-|> AbstractSmcbHealthCardAbsentEvent
  Smcb2HealthCardAbsentEvent -up-|> AbstractSmcbHealthCardAbsentEvent
  UnknownCardAbsentEvent -up-|> AbstractHealthCardAbsentEvent


@enduml

PlantUML version 1.2019.06(Fri May 24 19:10:25 CEST 2019)
(APACHE source distribution)
Java Runtime: OpenJDK Runtime Environment
JVM: OpenJDK 64-Bit Server VM
Java Version: 11.0.4+10-b304.69
Operating System: Windows 7
OS Version: 6.1
Default Encoding: Cp1252
Language: de
Country: DE
--></g></svg>