<?xml version="1.0" encoding="UTF-8" standalone="no"?><svg xmlns="http://www.w3.org/2000/svg" xmlns:xlink="http://www.w3.org/1999/xlink" contentScriptType="application/ecmascript" contentStyleType="text/css" height="659px" preserveAspectRatio="none" style="width:643px;height:659px;" version="1.1" viewBox="0 0 643 659" width="643px" zoomAndPan="magnify"><defs><filter height="300%" id="f4pbavjovtphg" width="300%" x="-1" y="-1"><feGaussianBlur result="blurOut" stdDeviation="2.0"/><feColorMatrix in="blurOut" result="blurOut2" type="matrix" values="0 0 0 0 0 0 0 0 0 0 0 0 0 0 0 0 0 0 .4 0"/><feOffset dx="4.0" dy="4.0" in="blurOut2" result="blurOut3"/><feBlend in="SourceGraphic" in2="blurOut3" mode="normal"/></filter></defs><g><!--cluster de.gematik.ti.healthcard.control--><polygon fill="#FFFFFF" filter="url(#f4pbavjovtphg)" points="22,24,251,24,258,47.6094,621,47.6094,621,647,22,647,22,24" style="stroke: #000000; stroke-width: 1.5;"/><line style="stroke: #000000; stroke-width: 1.5;" x1="22" x2="258" y1="47.6094" y2="47.6094"/><text fill="#000000" font-family="sans-serif" font-size="14" font-weight="bold" lengthAdjust="spacingAndGlyphs" textLength="223" x="26" y="40.5332">de.gematik.ti.healthcard.control</text><!--class HealthCardControl--><rect fill="#FEFECE" filter="url(#f4pbavjovtphg)" height="144.8516" id="HealthCardControl" style="stroke: #A80036; stroke-width: 1.5;" width="163" x="236.5" y="60"/><ellipse cx="264.1" cy="76" fill="#ADD1B2" rx="11" ry="11" style="stroke: #A80036; stroke-width: 1.0;"/><path d="M266.1,72.5 Q266.3031,72 266.5375,71.75 Q266.7719,71.5 267.0375,71.5 Q267.5063,71.5 267.8031,71.7813 Q268.1,72.0625 268.1,72.7188 L268.1,74.2813 Q268.1,74.9375 267.8188,75.2188 Q267.5375,75.5 267.1,75.5 Q266.7094,75.5 266.4594,75.3281 Q266.2094,75.1563 266.1,74.7031 Q266.0531,74.3906 265.8813,74.2188 Q265.5688,73.8906 265.0063,73.7031 Q264.4438,73.5 263.8813,73.5 Q263.1781,73.5 262.5844,73.7813 Q262.0063,74.0625 261.5531,74.6875 Q261.1,75.3125 261.1,76.1719 L261.1,77.0938 Q261.1,78.125 261.9438,78.8125 Q262.7875,79.5 264.2875,79.5 Q265.1781,79.5 265.8031,79.2969 Q266.1625,79.1875 266.5688,78.8281 Q266.8344,78.625 266.975,78.5625 Q267.1156,78.5 267.2875,78.5 Q267.6156,78.5 267.85,78.7656 Q268.1,79.0156 268.1,79.375 Q268.1,79.7188 267.7563,80.125 Q267.2563,80.7188 266.4594,81.0469 Q265.4125,81.5 264.1313,81.5 Q262.6313,81.5 261.4281,80.9063 Q260.4594,80.4375 259.7719,79.4219 Q259.1,78.4063 259.1,77.2031 L259.1,76.1094 Q259.1,74.8594 259.6938,73.7656 Q260.3031,72.6719 261.35,72.0938 Q262.4125,71.5 263.6,71.5 Q264.3188,71.5 264.9438,71.75 Q265.5688,72 266.1,72.5 Z "/><text fill="#000000" font-family="sans-serif" font-size="12" lengthAdjust="spacingAndGlyphs" textLength="103" x="280.9" y="80.9102">HealthCardControl</text><line style="stroke: #A80036; stroke-width: 1.5;" x1="237.5" x2="398.5" y1="92" y2="92"/><rect fill="none" height="6" style="stroke: #C82930; stroke-width: 1.0;" width="6" x="244.5" y="101.418"/><text fill="#000000" font-family="sans-serif" font-size="11" lengthAdjust="spacingAndGlyphs" text-decoration="underline" textLength="65" x="256.5" y="107.4189">LOG : Logger</text><rect fill="none" height="6" style="stroke: #C82930; stroke-width: 1.0;" width="6" x="244.5" y="115.2539"/><text fill="#000000" font-family="sans-serif" font-size="11" lengthAdjust="spacingAndGlyphs" text-decoration="underline" textLength="59" x="256.5" y="121.2549">TAG : String</text><rect fill="none" height="6" style="stroke: #C82930; stroke-width: 1.0;" width="6" x="244.5" y="129.0898"/><text fill="#000000" font-family="sans-serif" font-size="11" lengthAdjust="spacingAndGlyphs" text-decoration="underline" textLength="137" x="256.5" y="135.0908">instance : HealthCardControl</text><line style="stroke: #A80036; stroke-width: 1.5;" x1="237.5" x2="398.5" y1="141.5078" y2="141.5078"/><rect fill="#F24D5C" height="6" style="stroke: #C82930; stroke-width: 1.0;" width="6" x="244.5" y="150.9258"/><text fill="#000000" font-family="sans-serif" font-size="11" lengthAdjust="spacingAndGlyphs" textLength="95" x="256.5" y="156.9268">HealthCardControl()</text><ellipse cx="247.5" cy="167.7617" fill="#84BE84" rx="3" ry="3" style="stroke: #038048; stroke-width: 1.0;"/><text fill="#000000" font-family="sans-serif" font-size="11" lengthAdjust="spacingAndGlyphs" text-decoration="underline" textLength="64" x="256.5" y="170.7627">getInstance()</text><ellipse cx="247.5" cy="181.5977" fill="#84BE84" rx="3" ry="3" style="stroke: #038048; stroke-width: 1.0;"/><text fill="#000000" font-family="sans-serif" font-size="11" lengthAdjust="spacingAndGlyphs" text-decoration="underline" textLength="30" x="256.5" y="184.5986">start()</text><ellipse cx="247.5" cy="195.4336" fill="#84BE84" rx="3" ry="3" style="stroke: #038048; stroke-width: 1.0;"/><text fill="#000000" font-family="sans-serif" font-size="11" lengthAdjust="spacingAndGlyphs" text-decoration="underline" textLength="29" x="256.5" y="198.4346">stop()</text><!--class CardDetector--><rect fill="#FEFECE" filter="url(#f4pbavjovtphg)" height="366.2266" id="CardDetector" style="stroke: #A80036; stroke-width: 1.5;" width="260" x="38" y="265"/><ellipse cx="127.25" cy="281" fill="#ADD1B2" rx="11" ry="11" style="stroke: #A80036; stroke-width: 1.0;"/><path d="M129.25,277.5 Q129.4531,277 129.6875,276.75 Q129.9219,276.5 130.1875,276.5 Q130.6563,276.5 130.9531,276.7813 Q131.25,277.0625 131.25,277.7188 L131.25,279.2813 Q131.25,279.9375 130.9688,280.2188 Q130.6875,280.5 130.25,280.5 Q129.8594,280.5 129.6094,280.3281 Q129.3594,280.1563 129.25,279.7031 Q129.2031,279.3906 129.0313,279.2188 Q128.7188,278.8906 128.1563,278.7031 Q127.5938,278.5 127.0313,278.5 Q126.3281,278.5 125.7344,278.7813 Q125.1563,279.0625 124.7031,279.6875 Q124.25,280.3125 124.25,281.1719 L124.25,282.0938 Q124.25,283.125 125.0938,283.8125 Q125.9375,284.5 127.4375,284.5 Q128.3281,284.5 128.9531,284.2969 Q129.3125,284.1875 129.7188,283.8281 Q129.9844,283.625 130.125,283.5625 Q130.2656,283.5 130.4375,283.5 Q130.7656,283.5 131,283.7656 Q131.25,284.0156 131.25,284.375 Q131.25,284.7188 130.9063,285.125 Q130.4063,285.7188 129.6094,286.0469 Q128.5625,286.5 127.2813,286.5 Q125.7813,286.5 124.5781,285.9063 Q123.6094,285.4375 122.9219,284.4219 Q122.25,283.4063 122.25,282.2031 L122.25,281.1094 Q122.25,279.8594 122.8438,278.7656 Q123.4531,277.6719 124.5,277.0938 Q125.5625,276.5 126.75,276.5 Q127.4688,276.5 128.0938,276.75 Q128.7188,277 129.25,277.5 Z "/><text fill="#000000" font-family="sans-serif" font-size="12" lengthAdjust="spacingAndGlyphs" textLength="73" x="147.75" y="285.9102">CardDetector</text><line style="stroke: #A80036; stroke-width: 1.5;" x1="39" x2="297" y1="297" y2="297"/><rect fill="none" height="6" style="stroke: #C82930; stroke-width: 1.0;" width="6" x="46" y="306.418"/><text fill="#000000" font-family="sans-serif" font-size="11" lengthAdjust="spacingAndGlyphs" text-decoration="underline" textLength="65" x="58" y="312.4189">LOG : Logger</text><rect fill="none" height="6" style="stroke: #C82930; stroke-width: 1.0;" width="6" x="46" y="320.2539"/><text fill="#000000" font-family="sans-serif" font-size="11" lengthAdjust="spacingAndGlyphs" text-decoration="underline" textLength="59" x="58" y="326.2549">TAG : String</text><rect fill="none" height="6" style="stroke: #C82930; stroke-width: 1.0;" width="6" x="46" y="334.0898"/><text fill="#000000" font-family="sans-serif" font-size="11" lengthAdjust="spacingAndGlyphs" text-decoration="underline" textLength="135" x="58" y="340.0908">RECEIVE_BUFFER_SIZE : int</text><rect fill="none" height="6" style="stroke: #C82930; stroke-width: 1.0;" width="6" x="46" y="347.9258"/><text fill="#000000" font-family="sans-serif" font-size="11" lengthAdjust="spacingAndGlyphs" text-decoration="underline" textLength="114" x="58" y="353.9268">instance : CardDetector</text><rect fill="none" height="6" style="stroke: #C82930; stroke-width: 1.0;" width="6" x="46" y="361.7617"/><text fill="#000000" font-family="sans-serif" font-size="11" lengthAdjust="spacingAndGlyphs" textLength="234" x="58" y="367.7627">healthCardMap : Map&lt;ICardReader, IHealthCard&gt;</text><line style="stroke: #A80036; stroke-width: 1.5;" x1="39" x2="297" y1="374.1797" y2="374.1797"/><rect fill="#F24D5C" height="6" style="stroke: #C82930; stroke-width: 1.0;" width="6" x="46" y="383.5977"/><text fill="#000000" font-family="sans-serif" font-size="11" lengthAdjust="spacingAndGlyphs" textLength="72" x="58" y="389.5986">CardDetector()</text><ellipse cx="49" cy="400.4336" fill="#84BE84" rx="3" ry="3" style="stroke: #038048; stroke-width: 1.0;"/><text fill="#000000" font-family="sans-serif" font-size="11" lengthAdjust="spacingAndGlyphs" text-decoration="underline" textLength="64" x="58" y="403.4346">getInstance()</text><ellipse cx="49" cy="414.2695" fill="#84BE84" rx="3" ry="3" style="stroke: #038048; stroke-width: 1.0;"/><text fill="#000000" font-family="sans-serif" font-size="11" lengthAdjust="spacingAndGlyphs" text-decoration="underline" textLength="75" x="58" y="417.2705">startDetection()</text><ellipse cx="49" cy="428.1055" fill="#84BE84" rx="3" ry="3" style="stroke: #038048; stroke-width: 1.0;"/><text fill="#000000" font-family="sans-serif" font-size="11" lengthAdjust="spacingAndGlyphs" text-decoration="underline" textLength="74" x="58" y="431.1064">stopDetection()</text><rect fill="#F24D5C" height="6" style="stroke: #C82930; stroke-width: 1.0;" width="6" x="46" y="438.9414"/><text fill="#000000" font-family="sans-serif" font-size="11" lengthAdjust="spacingAndGlyphs" textLength="45" x="58" y="444.9424">register()</text><rect fill="#F24D5C" height="6" style="stroke: #C82930; stroke-width: 1.0;" width="6" x="46" y="452.7773"/><text fill="#000000" font-family="sans-serif" font-size="11" lengthAdjust="spacingAndGlyphs" textLength="57" x="58" y="458.7783">unregister()</text><ellipse cx="49" cy="469.6133" fill="#84BE84" rx="3" ry="3" style="stroke: #038048; stroke-width: 1.0;"/><text fill="#000000" font-family="sans-serif" font-size="11" lengthAdjust="spacingAndGlyphs" textLength="133" x="58" y="472.6143">handleCardPresentEvents()</text><rect fill="#F24D5C" height="6" style="stroke: #C82930; stroke-width: 1.0;" width="6" x="46" y="480.4492"/><text fill="#000000" font-family="sans-serif" font-size="11" lengthAdjust="spacingAndGlyphs" textLength="209" x="58" y="486.4502">createHealthCardWithTypeAndSendEvent()</text><rect fill="#F24D5C" height="6" style="stroke: #C82930; stroke-width: 1.0;" width="6" x="46" y="494.2852"/><text fill="#000000" font-family="sans-serif" font-size="11" lengthAdjust="spacingAndGlyphs" textLength="89" x="58" y="500.2861">extractCardType()</text><rect fill="#F24D5C" height="6" style="stroke: #C82930; stroke-width: 1.0;" width="6" x="46" y="508.1211"/><text fill="#000000" font-family="sans-serif" font-size="11" lengthAdjust="spacingAndGlyphs" textLength="59" x="58" y="514.1221">sendEvent()</text><rect fill="#F24D5C" height="6" style="stroke: #C82930; stroke-width: 1.0;" width="6" x="46" y="521.957"/><text fill="#000000" font-family="sans-serif" font-size="11" lengthAdjust="spacingAndGlyphs" textLength="196" x="58" y="527.958">createPresentEventForHealthCardType()</text><rect fill="#F24D5C" height="6" style="stroke: #C82930; stroke-width: 1.0;" width="6" x="46" y="535.793"/><text fill="#000000" font-family="sans-serif" font-size="11" lengthAdjust="spacingAndGlyphs" textLength="127" x="58" y="541.7939">getHealthCardTypeSmcb()</text><rect fill="#F24D5C" height="6" style="stroke: #C82930; stroke-width: 1.0;" width="6" x="46" y="549.6289"/><text fill="#000000" font-family="sans-serif" font-size="11" lengthAdjust="spacingAndGlyphs" textLength="119" x="58" y="555.6299">getHealthCardTypeHba()</text><rect fill="#F24D5C" height="6" style="stroke: #C82930; stroke-width: 1.0;" width="6" x="46" y="563.4648"/><text fill="#000000" font-family="sans-serif" font-size="11" lengthAdjust="spacingAndGlyphs" textLength="133" x="58" y="569.4658">getHealthCardTypeForEgk()</text><ellipse cx="49" cy="580.3008" fill="#84BE84" rx="3" ry="3" style="stroke: #038048; stroke-width: 1.0;"/><text fill="#000000" font-family="sans-serif" font-size="11" lengthAdjust="spacingAndGlyphs" textLength="131" x="58" y="583.3018">handleCardAbsentEvents()</text><rect fill="#F24D5C" height="6" style="stroke: #C82930; stroke-width: 1.0;" width="6" x="46" y="591.1367"/><text fill="#000000" font-family="sans-serif" font-size="11" lengthAdjust="spacingAndGlyphs" textLength="117" x="58" y="597.1377">sendCardAbsentEvent()</text><ellipse cx="49" cy="607.9727" fill="#84BE84" rx="3" ry="3" style="stroke: #038048; stroke-width: 1.0;"/><text fill="#000000" font-family="sans-serif" font-size="11" lengthAdjust="spacingAndGlyphs" textLength="197" x="58" y="610.9736">handleCardReaderDisconnectedEvents()</text><rect fill="#F24D5C" height="6" style="stroke: #C82930; stroke-width: 1.0;" width="6" x="46" y="618.8086"/><text fill="#000000" font-family="sans-serif" font-size="11" lengthAdjust="spacingAndGlyphs" textLength="194" x="58" y="624.8096">createAbsentEventForHealthCardType()</text><!--class TrustedChannelPaceKeyRequestHandler--><rect fill="#FEFECE" filter="url(#f4pbavjovtphg)" height="186.3594" id="TrustedChannelPaceKeyRequestHandler" style="stroke: #A80036; stroke-width: 1.5;" width="272" x="333" y="355"/><ellipse cx="353.4" cy="371" fill="#ADD1B2" rx="11" ry="11" style="stroke: #A80036; stroke-width: 1.0;"/><path d="M355.4,367.5 Q355.6031,367 355.8375,366.75 Q356.0719,366.5 356.3375,366.5 Q356.8063,366.5 357.1031,366.7813 Q357.4,367.0625 357.4,367.7188 L357.4,369.2813 Q357.4,369.9375 357.1188,370.2188 Q356.8375,370.5 356.4,370.5 Q356.0094,370.5 355.7594,370.3281 Q355.5094,370.1563 355.4,369.7031 Q355.3531,369.3906 355.1813,369.2188 Q354.8688,368.8906 354.3063,368.7031 Q353.7438,368.5 353.1813,368.5 Q352.4781,368.5 351.8844,368.7813 Q351.3063,369.0625 350.8531,369.6875 Q350.4,370.3125 350.4,371.1719 L350.4,372.0938 Q350.4,373.125 351.2438,373.8125 Q352.0875,374.5 353.5875,374.5 Q354.4781,374.5 355.1031,374.2969 Q355.4625,374.1875 355.8688,373.8281 Q356.1344,373.625 356.275,373.5625 Q356.4156,373.5 356.5875,373.5 Q356.9156,373.5 357.15,373.7656 Q357.4,374.0156 357.4,374.375 Q357.4,374.7188 357.0563,375.125 Q356.5563,375.7188 355.7594,376.0469 Q354.7125,376.5 353.4313,376.5 Q351.9313,376.5 350.7281,375.9063 Q349.7594,375.4375 349.0719,374.4219 Q348.4,373.4063 348.4,372.2031 L348.4,371.1094 Q348.4,369.8594 348.9938,368.7656 Q349.6031,367.6719 350.65,367.0938 Q351.7125,366.5 352.9,366.5 Q353.6188,366.5 354.2438,366.75 Q354.8688,367 355.4,367.5 Z "/><text fill="#000000" font-family="sans-serif" font-size="12" lengthAdjust="spacingAndGlyphs" textLength="228" x="368.6" y="375.9102">TrustedChannelPaceKeyRequestHandler</text><line style="stroke: #A80036; stroke-width: 1.5;" x1="334" x2="604" y1="387" y2="387"/><rect fill="none" height="6" style="stroke: #C82930; stroke-width: 1.0;" width="6" x="341" y="396.418"/><text fill="#000000" font-family="sans-serif" font-size="11" lengthAdjust="spacingAndGlyphs" text-decoration="underline" textLength="65" x="353" y="402.4189">LOG : Logger</text><rect fill="none" height="6" style="stroke: #C82930; stroke-width: 1.0;" width="6" x="341" y="410.2539"/><text fill="#000000" font-family="sans-serif" font-size="11" lengthAdjust="spacingAndGlyphs" text-decoration="underline" textLength="59" x="353" y="416.2549">TAG : String</text><rect fill="none" height="6" style="stroke: #C82930; stroke-width: 1.0;" width="6" x="341" y="424.0898"/><text fill="#000000" font-family="sans-serif" font-size="11" lengthAdjust="spacingAndGlyphs" text-decoration="underline" textLength="246" x="353" y="430.0908">instance : TrustedChannelPaceKeyRequestHandler</text><line style="stroke: #A80036; stroke-width: 1.5;" x1="334" x2="604" y1="436.5078" y2="436.5078"/><rect fill="#F24D5C" height="6" style="stroke: #C82930; stroke-width: 1.0;" width="6" x="341" y="445.9258"/><text fill="#000000" font-family="sans-serif" font-size="11" lengthAdjust="spacingAndGlyphs" textLength="204" x="353" y="451.9268">TrustedChannelPaceKeyRequestHandler()</text><ellipse cx="344" cy="462.7617" fill="#84BE84" rx="3" ry="3" style="stroke: #038048; stroke-width: 1.0;"/><text fill="#000000" font-family="sans-serif" font-size="11" lengthAdjust="spacingAndGlyphs" text-decoration="underline" textLength="64" x="353" y="465.7627">getInstance()</text><ellipse cx="344" cy="476.5977" fill="#84BE84" rx="3" ry="3" style="stroke: #038048; stroke-width: 1.0;"/><text fill="#000000" font-family="sans-serif" font-size="11" lengthAdjust="spacingAndGlyphs" text-decoration="underline" textLength="71" x="353" y="479.5986">startHandling()</text><ellipse cx="344" cy="490.4336" fill="#84BE84" rx="3" ry="3" style="stroke: #038048; stroke-width: 1.0;"/><text fill="#000000" font-family="sans-serif" font-size="11" lengthAdjust="spacingAndGlyphs" text-decoration="underline" textLength="70" x="353" y="493.4346">stopHandling()</text><rect fill="#F24D5C" height="6" style="stroke: #C82930; stroke-width: 1.0;" width="6" x="341" y="501.2695"/><text fill="#000000" font-family="sans-serif" font-size="11" lengthAdjust="spacingAndGlyphs" textLength="45" x="353" y="507.2705">register()</text><rect fill="#F24D5C" height="6" style="stroke: #C82930; stroke-width: 1.0;" width="6" x="341" y="515.1055"/><text fill="#000000" font-family="sans-serif" font-size="11" lengthAdjust="spacingAndGlyphs" textLength="57" x="353" y="521.1064">unregister()</text><ellipse cx="344" cy="531.9414" fill="#84BE84" rx="3" ry="3" style="stroke: #038048; stroke-width: 1.0;"/><text fill="#000000" font-family="sans-serif" font-size="11" lengthAdjust="spacingAndGlyphs" textLength="150" x="353" y="534.9424">handleRequestPaceKeyEvent()</text><!--link HealthCardControl to CardDetector--><path d="M283.775,205.03 C275.724,221.857 266.773,240.565 257.514,259.915 " fill="none" id="HealthCardControl-CardDetector" style="stroke: #A80036; stroke-width: 1.0; stroke-dasharray: 7.0,7.0;"/><polygon fill="#A80036" points="255.154,264.848,262.6475,258.4568,257.3126,260.338,255.4314,255.0031,255.154,264.848" style="stroke: #A80036; stroke-width: 1.0;"/><!--link HealthCardControl to TrustedChannelPaceKeyRequestHandler--><path d="M352.453,205.03 C373.197,248.097 399.879,303.495 422.479,350.414 " fill="none" id="HealthCardControl-TrustedChannelPaceKeyRequestHandler" style="stroke: #A80036; stroke-width: 1.0; stroke-dasharray: 7.0,7.0;"/><polygon fill="#A80036" points="424.653,354.928,424.3504,345.0838,422.4829,350.4235,417.1432,348.556,424.653,354.928" style="stroke: #A80036; stroke-width: 1.0;"/><!--
@startuml

    package de.gematik.ti.healthcard.control {
      class HealthCardControl {
          {static} - LOG : Logger
          {static} - TAG : String
          {static} - instance : HealthCardControl
          - HealthCardControl()
          {static} + getInstance()
          {static} + start()
          {static} + stop()
      }
    }

 package de.gematik.ti.healthcard.control {
      class CardDetector {
          {static} - LOG : Logger
          {static} - TAG : String
          {static} - RECEIVE_BUFFER_SIZE : int
          {static} - instance : CardDetector
          - healthCardMap : Map<ICardReader, IHealthCard>
          - CardDetector()
          {static} + getInstance()
          {static} + startDetection()
          {static} + stopDetection()
          - register()
          - unregister()
          + handleCardPresentEvents()
          - createHealthCardWithTypeAndSendEvent()
          - extractCardType()
          - sendEvent()
          - createPresentEventForHealthCardType()
          - getHealthCardTypeSmcb()
          - getHealthCardTypeHba()
          - getHealthCardTypeForEgk()
          + handleCardAbsentEvents()
          - sendCardAbsentEvent()
          + handleCardReaderDisconnectedEvents()
          - createAbsentEventForHealthCardType()
      }
    }

    package de.gematik.ti.healthcard.control {
      class TrustedChannelPaceKeyRequestHandler {
          {static} - LOG : Logger
          {static} - TAG : String
          {static} - instance : TrustedChannelPaceKeyRequestHandler
          - TrustedChannelPaceKeyRequestHandler()
          {static} + getInstance()
          {static} + startHandling()
          {static} + stopHandling()
          - register()
          - unregister()
          + handleRequestPaceKeyEvent()
      }
    }

  HealthCardControl ..> CardDetector
  HealthCardControl ..> TrustedChannelPaceKeyRequestHandler

@enduml

PlantUML version 1.2019.06(Fri May 24 19:10:25 CEST 2019)
(APACHE source distribution)
Java Runtime: OpenJDK Runtime Environment
JVM: OpenJDK 64-Bit Server VM
Java Version: 11.0.4+10-b304.69
Operating System: Windows 7
OS Version: 6.1
Default Encoding: Cp1252
Language: de
Country: DE
--></g></svg>