<?xml version="1.0" encoding="UTF-8" standalone="no"?><svg xmlns="http://www.w3.org/2000/svg" xmlns:xlink="http://www.w3.org/1999/xlink" contentScriptType="application/ecmascript" contentStyleType="text/css" height="678px" preserveAspectRatio="none" style="width:1524px;height:678px;" version="1.1" viewBox="0 0 1524 678" width="1524px" zoomAndPan="magnify"><defs><filter height="300%" id="f10on8wde162j1" width="300%" x="-1" y="-1"><feGaussianBlur result="blurOut" stdDeviation="2.0"/><feColorMatrix in="blurOut" result="blurOut2" type="matrix" values="0 0 0 0 0 0 0 0 0 0 0 0 0 0 0 0 0 0 .4 0"/><feOffset dx="4.0" dy="4.0" in="blurOut2" result="blurOut3"/><feBlend in="SourceGraphic" in2="blurOut3" mode="normal"/></filter></defs><g><!--cluster de.gematik.ti.healthcard.control.events.healthcard--><polygon fill="#FFFFFF" filter="url(#f10on8wde162j1)" points="22,148,383,148,390,171.6094,1502,171.6094,1502,666,22,666,22,148" style="stroke: #000000; stroke-width: 1.5;"/><line style="stroke: #000000; stroke-width: 1.5;" x1="22" x2="390" y1="171.6094" y2="171.6094"/><text fill="#000000" font-family="sans-serif" font-size="14" font-weight="bold" lengthAdjust="spacingAndGlyphs" textLength="355" x="26" y="164.5332">de.gematik.ti.healthcard.control.events.healthcard</text><!--cluster de.gematik.ti.healthcard.control.events.healthcard.present--><polygon fill="#FFFFFF" filter="url(#f10on8wde162j1)" points="46,284,466,284,473,307.6094,1478,307.6094,1478,642,46,642,46,284" style="stroke: #000000; stroke-width: 1.5;"/><line style="stroke: #000000; stroke-width: 1.5;" x1="46" x2="473" y1="307.6094" y2="307.6094"/><text fill="#000000" font-family="sans-serif" font-size="14" font-weight="bold" lengthAdjust="spacingAndGlyphs" textLength="414" x="50" y="300.5332">de.gematik.ti.healthcard.control.events.healthcard.present</text><!--cluster de.gematik.ti.cardreader.provider.api.events--><polygon fill="#FFFFFF" filter="url(#f10on8wde162j1)" points="824,24,1145,24,1152,47.6094,1155,47.6094,1155,124,824,124,824,24" style="stroke: #000000; stroke-width: 1.5;"/><line style="stroke: #000000; stroke-width: 1.5;" x1="824" x2="1152" y1="47.6094" y2="47.6094"/><text fill="#000000" font-family="sans-serif" font-size="14" font-weight="bold" lengthAdjust="spacingAndGlyphs" textLength="315" x="828" y="40.5332">de.gematik.ti.cardreader.provider.api.events</text><!--class AbstractHealthCardEvent--><rect fill="#FEFECE" filter="url(#f10on8wde162j1)" height="75.6719" id="AbstractHealthCardEvent" style="stroke: #A80036; stroke-width: 1.5;" width="171" x="903.5" y="184"/><ellipse cx="918.5" cy="200" fill="#A9DCDF" rx="11" ry="11" style="stroke: #A80036; stroke-width: 1.0;"/><path d="M920.25,201.5 L916.9531,201.5 L916.5156,202.5 L916.5156,202.5 L916.9844,202.5 L917.5,203.125 L917.5,203.5 L917.5,203.875 L916.9844,204.5 L916.5156,204.5 L914.625,204.5 L914.0156,204.5 L913.5,203.875 L913.5,203.5 L913.5,203.125 L914.0156,202.5 L914.625,202.5 L916.9375,196.5 L916.0625,196.5 L915.0156,196.5 L914.5,195.875 L914.5,195.5 L914.5,195.125 L915.0156,194.5 L916.0625,194.5 L919.7344,194.5 L922.4219,202.5 L922.9844,202.5 L922.9844,202.5 L923.5,203.125 L923.5,203.5 L923.5,203.875 L922.9844,204.5 L922.4219,204.5 L920.5313,204.5 L920.0156,204.5 L919.5,203.875 L919.5,203.5 L919.5,203.125 L920.0156,202.5 L920.5313,202.5 L920.5313,202.5 L920.25,201.5 Z M919.7031,199.5 L918.5,195.9219 L917.4688,199.5 L919.7031,199.5 Z "/><text fill="#000000" font-family="sans-serif" font-size="12" font-style="italic" lengthAdjust="spacingAndGlyphs" textLength="139" x="932.5" y="204.9102">AbstractHealthCardEvent</text><line style="stroke: #A80036; stroke-width: 1.5;" x1="904.5" x2="1073.5" y1="216" y2="216"/><line style="stroke: #A80036; stroke-width: 1.5;" x1="904.5" x2="1073.5" y1="224" y2="224"/><polygon fill="#FFFF44" points="914.5,231.418,918.5,235.418,914.5,239.418,910.5,235.418" style="stroke: #B38D22; stroke-width: 1.0;"/><text fill="#000000" font-family="sans-serif" font-size="11" lengthAdjust="spacingAndGlyphs" textLength="130" x="923.5" y="239.4189">AbstractHealthCardEvent()</text><ellipse cx="914.5" cy="250.2539" fill="#84BE84" rx="3" ry="3" style="stroke: #038048; stroke-width: 1.0;"/><text fill="#000000" font-family="sans-serif" font-size="11" lengthAdjust="spacingAndGlyphs" textLength="76" x="923.5" y="253.2549">getHealthCard()</text><!--class AbstractEgkHealthCardPresentEvent--><rect fill="#FEFECE" filter="url(#f10on8wde162j1)" height="61.8359" id="AbstractEgkHealthCardPresentEvent" style="stroke: #A80036; stroke-width: 1.5;" width="235" x="1007.5" y="442"/><ellipse cx="1022.5" cy="458" fill="#A9DCDF" rx="11" ry="11" style="stroke: #A80036; stroke-width: 1.0;"/><path d="M1024.25,459.5 L1020.9531,459.5 L1020.5156,460.5 L1020.5156,460.5 L1020.9844,460.5 L1021.5,461.125 L1021.5,461.5 L1021.5,461.875 L1020.9844,462.5 L1020.5156,462.5 L1018.625,462.5 L1018.0156,462.5 L1017.5,461.875 L1017.5,461.5 L1017.5,461.125 L1018.0156,460.5 L1018.625,460.5 L1020.9375,454.5 L1020.0625,454.5 L1019.0156,454.5 L1018.5,453.875 L1018.5,453.5 L1018.5,453.125 L1019.0156,452.5 L1020.0625,452.5 L1023.7344,452.5 L1026.4219,460.5 L1026.9844,460.5 L1026.9844,460.5 L1027.5,461.125 L1027.5,461.5 L1027.5,461.875 L1026.9844,462.5 L1026.4219,462.5 L1024.5313,462.5 L1024.0156,462.5 L1023.5,461.875 L1023.5,461.5 L1023.5,461.125 L1024.0156,460.5 L1024.5313,460.5 L1024.5313,460.5 L1024.25,459.5 Z M1023.7031,457.5 L1022.5,453.9219 L1021.4688,457.5 L1023.7031,457.5 Z "/><text fill="#000000" font-family="sans-serif" font-size="12" font-style="italic" lengthAdjust="spacingAndGlyphs" textLength="203" x="1036.5" y="462.9102">AbstractEgkHealthCardPresentEvent</text><line style="stroke: #A80036; stroke-width: 1.5;" x1="1008.5" x2="1241.5" y1="474" y2="474"/><line style="stroke: #A80036; stroke-width: 1.5;" x1="1008.5" x2="1241.5" y1="482" y2="482"/><polygon fill="#FFFF44" points="1018.5,489.418,1022.5,493.418,1018.5,497.418,1014.5,493.418" style="stroke: #B38D22; stroke-width: 1.0;"/><text fill="#000000" font-family="sans-serif" font-size="11" lengthAdjust="spacingAndGlyphs" textLength="184" x="1027.5" y="497.4189">AbstractEgkHealthCardPresentEvent()</text><!--class AbstractHbaHealthCardPresentEvent--><rect fill="#FEFECE" filter="url(#f10on8wde162j1)" height="61.8359" id="AbstractHbaHealthCardPresentEvent" style="stroke: #A80036; stroke-width: 1.5;" width="237" x="735.5" y="442"/><ellipse cx="750.5" cy="458" fill="#A9DCDF" rx="11" ry="11" style="stroke: #A80036; stroke-width: 1.0;"/><path d="M752.25,459.5 L748.9531,459.5 L748.5156,460.5 L748.5156,460.5 L748.9844,460.5 L749.5,461.125 L749.5,461.5 L749.5,461.875 L748.9844,462.5 L748.5156,462.5 L746.625,462.5 L746.0156,462.5 L745.5,461.875 L745.5,461.5 L745.5,461.125 L746.0156,460.5 L746.625,460.5 L748.9375,454.5 L748.0625,454.5 L747.0156,454.5 L746.5,453.875 L746.5,453.5 L746.5,453.125 L747.0156,452.5 L748.0625,452.5 L751.7344,452.5 L754.4219,460.5 L754.9844,460.5 L754.9844,460.5 L755.5,461.125 L755.5,461.5 L755.5,461.875 L754.9844,462.5 L754.4219,462.5 L752.5313,462.5 L752.0156,462.5 L751.5,461.875 L751.5,461.5 L751.5,461.125 L752.0156,460.5 L752.5313,460.5 L752.5313,460.5 L752.25,459.5 Z M751.7031,457.5 L750.5,453.9219 L749.4688,457.5 L751.7031,457.5 Z "/><text fill="#000000" font-family="sans-serif" font-size="12" font-style="italic" lengthAdjust="spacingAndGlyphs" textLength="205" x="764.5" y="462.9102">AbstractHbaHealthCardPresentEvent</text><line style="stroke: #A80036; stroke-width: 1.5;" x1="736.5" x2="971.5" y1="474" y2="474"/><line style="stroke: #A80036; stroke-width: 1.5;" x1="736.5" x2="971.5" y1="482" y2="482"/><polygon fill="#FFFF44" points="746.5,489.418,750.5,493.418,746.5,497.418,742.5,493.418" style="stroke: #B38D22; stroke-width: 1.0;"/><text fill="#000000" font-family="sans-serif" font-size="11" lengthAdjust="spacingAndGlyphs" textLength="186" x="755.5" y="497.4189">AbstractHbaHealthCardPresentEvent()</text><!--class AbstractHealthCardPresentEvent--><rect fill="#FEFECE" filter="url(#f10on8wde162j1)" height="61.8359" id="AbstractHealthCardPresentEvent" style="stroke: #A80036; stroke-width: 1.5;" width="213" x="882.5" y="320"/><ellipse cx="897.5" cy="336" fill="#A9DCDF" rx="11" ry="11" style="stroke: #A80036; stroke-width: 1.0;"/><path d="M899.25,337.5 L895.9531,337.5 L895.5156,338.5 L895.5156,338.5 L895.9844,338.5 L896.5,339.125 L896.5,339.5 L896.5,339.875 L895.9844,340.5 L895.5156,340.5 L893.625,340.5 L893.0156,340.5 L892.5,339.875 L892.5,339.5 L892.5,339.125 L893.0156,338.5 L893.625,338.5 L895.9375,332.5 L895.0625,332.5 L894.0156,332.5 L893.5,331.875 L893.5,331.5 L893.5,331.125 L894.0156,330.5 L895.0625,330.5 L898.7344,330.5 L901.4219,338.5 L901.9844,338.5 L901.9844,338.5 L902.5,339.125 L902.5,339.5 L902.5,339.875 L901.9844,340.5 L901.4219,340.5 L899.5313,340.5 L899.0156,340.5 L898.5,339.875 L898.5,339.5 L898.5,339.125 L899.0156,338.5 L899.5313,338.5 L899.5313,338.5 L899.25,337.5 Z M898.7031,335.5 L897.5,331.9219 L896.4688,335.5 L898.7031,335.5 Z "/><text fill="#000000" font-family="sans-serif" font-size="12" font-style="italic" lengthAdjust="spacingAndGlyphs" textLength="181" x="911.5" y="340.9102">AbstractHealthCardPresentEvent</text><line style="stroke: #A80036; stroke-width: 1.5;" x1="883.5" x2="1094.5" y1="352" y2="352"/><line style="stroke: #A80036; stroke-width: 1.5;" x1="883.5" x2="1094.5" y1="360" y2="360"/><polygon fill="#FFFF44" points="893.5,367.418,897.5,371.418,893.5,375.418,889.5,371.418" style="stroke: #B38D22; stroke-width: 1.0;"/><text fill="#000000" font-family="sans-serif" font-size="11" lengthAdjust="spacingAndGlyphs" textLength="167" x="902.5" y="375.4189">AbstractHealthCardPresentEvent()</text><!--class AbstractSmcbHealthCardPresentEvent--><rect fill="#FEFECE" filter="url(#f10on8wde162j1)" height="61.8359" id="AbstractSmcbHealthCardPresentEvent" style="stroke: #A80036; stroke-width: 1.5;" width="246" x="292" y="442"/><ellipse cx="307" cy="458" fill="#A9DCDF" rx="11" ry="11" style="stroke: #A80036; stroke-width: 1.0;"/><path d="M308.75,459.5 L305.4531,459.5 L305.0156,460.5 L305.0156,460.5 L305.4844,460.5 L306,461.125 L306,461.5 L306,461.875 L305.4844,462.5 L305.0156,462.5 L303.125,462.5 L302.5156,462.5 L302,461.875 L302,461.5 L302,461.125 L302.5156,460.5 L303.125,460.5 L305.4375,454.5 L304.5625,454.5 L303.5156,454.5 L303,453.875 L303,453.5 L303,453.125 L303.5156,452.5 L304.5625,452.5 L308.2344,452.5 L310.9219,460.5 L311.4844,460.5 L311.4844,460.5 L312,461.125 L312,461.5 L312,461.875 L311.4844,462.5 L310.9219,462.5 L309.0313,462.5 L308.5156,462.5 L308,461.875 L308,461.5 L308,461.125 L308.5156,460.5 L309.0313,460.5 L309.0313,460.5 L308.75,459.5 Z M308.2031,457.5 L307,453.9219 L305.9688,457.5 L308.2031,457.5 Z "/><text fill="#000000" font-family="sans-serif" font-size="12" font-style="italic" lengthAdjust="spacingAndGlyphs" textLength="214" x="321" y="462.9102">AbstractSmcbHealthCardPresentEvent</text><line style="stroke: #A80036; stroke-width: 1.5;" x1="293" x2="537" y1="474" y2="474"/><line style="stroke: #A80036; stroke-width: 1.5;" x1="293" x2="537" y1="482" y2="482"/><polygon fill="#FFFF44" points="303,489.418,307,493.418,303,497.418,299,493.418" style="stroke: #B38D22; stroke-width: 1.0;"/><text fill="#000000" font-family="sans-serif" font-size="11" lengthAdjust="spacingAndGlyphs" textLength="194" x="312" y="497.4189">AbstractSmcbHealthCardPresentEvent()</text><!--class Egk21HealthCardPresentEvent--><rect fill="#FEFECE" filter="url(#f10on8wde162j1)" height="61.8359" id="Egk21HealthCardPresentEvent" style="stroke: #A80036; stroke-width: 1.5;" width="203" x="1027.5" y="564"/><ellipse cx="1042.5" cy="580" fill="#ADD1B2" rx="11" ry="11" style="stroke: #A80036; stroke-width: 1.0;"/><path d="M1044.5,576.5 Q1044.7031,576 1044.9375,575.75 Q1045.1719,575.5 1045.4375,575.5 Q1045.9063,575.5 1046.2031,575.7813 Q1046.5,576.0625 1046.5,576.7188 L1046.5,578.2813 Q1046.5,578.9375 1046.2188,579.2188 Q1045.9375,579.5 1045.5,579.5 Q1045.1094,579.5 1044.8594,579.3281 Q1044.6094,579.1563 1044.5,578.7031 Q1044.4531,578.3906 1044.2813,578.2188 Q1043.9688,577.8906 1043.4063,577.7031 Q1042.8438,577.5 1042.2813,577.5 Q1041.5781,577.5 1040.9844,577.7813 Q1040.4063,578.0625 1039.9531,578.6875 Q1039.5,579.3125 1039.5,580.1719 L1039.5,581.0938 Q1039.5,582.125 1040.3438,582.8125 Q1041.1875,583.5 1042.6875,583.5 Q1043.5781,583.5 1044.2031,583.2969 Q1044.5625,583.1875 1044.9688,582.8281 Q1045.2344,582.625 1045.375,582.5625 Q1045.5156,582.5 1045.6875,582.5 Q1046.0156,582.5 1046.25,582.7656 Q1046.5,583.0156 1046.5,583.375 Q1046.5,583.7188 1046.1563,584.125 Q1045.6563,584.7188 1044.8594,585.0469 Q1043.8125,585.5 1042.5313,585.5 Q1041.0313,585.5 1039.8281,584.9063 Q1038.8594,584.4375 1038.1719,583.4219 Q1037.5,582.4063 1037.5,581.2031 L1037.5,580.1094 Q1037.5,578.8594 1038.0938,577.7656 Q1038.7031,576.6719 1039.75,576.0938 Q1040.8125,575.5 1042,575.5 Q1042.7188,575.5 1043.3438,575.75 Q1043.9688,576 1044.5,576.5 Z "/><text fill="#000000" font-family="sans-serif" font-size="12" lengthAdjust="spacingAndGlyphs" textLength="171" x="1056.5" y="584.9102">Egk21HealthCardPresentEvent</text><line style="stroke: #A80036; stroke-width: 1.5;" x1="1028.5" x2="1229.5" y1="596" y2="596"/><line style="stroke: #A80036; stroke-width: 1.5;" x1="1028.5" x2="1229.5" y1="604" y2="604"/><ellipse cx="1038.5" cy="616.418" fill="#84BE84" rx="3" ry="3" style="stroke: #038048; stroke-width: 1.0;"/><text fill="#000000" font-family="sans-serif" font-size="11" lengthAdjust="spacingAndGlyphs" textLength="154" x="1047.5" y="619.4189">Egk21HealthCardPresentEvent()</text><!--class Egk2HealthCardPresentEvent--><rect fill="#FEFECE" filter="url(#f10on8wde162j1)" height="61.8359" id="Egk2HealthCardPresentEvent" style="stroke: #A80036; stroke-width: 1.5;" width="196" x="1266" y="564"/><ellipse cx="1281" cy="580" fill="#ADD1B2" rx="11" ry="11" style="stroke: #A80036; stroke-width: 1.0;"/><path d="M1283,576.5 Q1283.2031,576 1283.4375,575.75 Q1283.6719,575.5 1283.9375,575.5 Q1284.4063,575.5 1284.7031,575.7813 Q1285,576.0625 1285,576.7188 L1285,578.2813 Q1285,578.9375 1284.7188,579.2188 Q1284.4375,579.5 1284,579.5 Q1283.6094,579.5 1283.3594,579.3281 Q1283.1094,579.1563 1283,578.7031 Q1282.9531,578.3906 1282.7813,578.2188 Q1282.4688,577.8906 1281.9063,577.7031 Q1281.3438,577.5 1280.7813,577.5 Q1280.0781,577.5 1279.4844,577.7813 Q1278.9063,578.0625 1278.4531,578.6875 Q1278,579.3125 1278,580.1719 L1278,581.0938 Q1278,582.125 1278.8438,582.8125 Q1279.6875,583.5 1281.1875,583.5 Q1282.0781,583.5 1282.7031,583.2969 Q1283.0625,583.1875 1283.4688,582.8281 Q1283.7344,582.625 1283.875,582.5625 Q1284.0156,582.5 1284.1875,582.5 Q1284.5156,582.5 1284.75,582.7656 Q1285,583.0156 1285,583.375 Q1285,583.7188 1284.6563,584.125 Q1284.1563,584.7188 1283.3594,585.0469 Q1282.3125,585.5 1281.0313,585.5 Q1279.5313,585.5 1278.3281,584.9063 Q1277.3594,584.4375 1276.6719,583.4219 Q1276,582.4063 1276,581.2031 L1276,580.1094 Q1276,578.8594 1276.5938,577.7656 Q1277.2031,576.6719 1278.25,576.0938 Q1279.3125,575.5 1280.5,575.5 Q1281.2188,575.5 1281.8438,575.75 Q1282.4688,576 1283,576.5 Z "/><text fill="#000000" font-family="sans-serif" font-size="12" lengthAdjust="spacingAndGlyphs" textLength="164" x="1295" y="584.9102">Egk2HealthCardPresentEvent</text><line style="stroke: #A80036; stroke-width: 1.5;" x1="1267" x2="1461" y1="596" y2="596"/><line style="stroke: #A80036; stroke-width: 1.5;" x1="1267" x2="1461" y1="604" y2="604"/><ellipse cx="1277" cy="616.418" fill="#84BE84" rx="3" ry="3" style="stroke: #038048; stroke-width: 1.0;"/><text fill="#000000" font-family="sans-serif" font-size="11" lengthAdjust="spacingAndGlyphs" textLength="148" x="1286" y="619.4189">Egk2HealthCardPresentEvent()</text><!--class Hba21HealthCardPresentEvent--><rect fill="#FEFECE" filter="url(#f10on8wde162j1)" height="61.8359" id="Hba21HealthCardPresentEvent" style="stroke: #A80036; stroke-width: 1.5;" width="205" x="553.5" y="564"/><ellipse cx="568.5" cy="580" fill="#ADD1B2" rx="11" ry="11" style="stroke: #A80036; stroke-width: 1.0;"/><path d="M570.5,576.5 Q570.7031,576 570.9375,575.75 Q571.1719,575.5 571.4375,575.5 Q571.9063,575.5 572.2031,575.7813 Q572.5,576.0625 572.5,576.7188 L572.5,578.2813 Q572.5,578.9375 572.2188,579.2188 Q571.9375,579.5 571.5,579.5 Q571.1094,579.5 570.8594,579.3281 Q570.6094,579.1563 570.5,578.7031 Q570.4531,578.3906 570.2813,578.2188 Q569.9688,577.8906 569.4063,577.7031 Q568.8438,577.5 568.2813,577.5 Q567.5781,577.5 566.9844,577.7813 Q566.4063,578.0625 565.9531,578.6875 Q565.5,579.3125 565.5,580.1719 L565.5,581.0938 Q565.5,582.125 566.3438,582.8125 Q567.1875,583.5 568.6875,583.5 Q569.5781,583.5 570.2031,583.2969 Q570.5625,583.1875 570.9688,582.8281 Q571.2344,582.625 571.375,582.5625 Q571.5156,582.5 571.6875,582.5 Q572.0156,582.5 572.25,582.7656 Q572.5,583.0156 572.5,583.375 Q572.5,583.7188 572.1563,584.125 Q571.6563,584.7188 570.8594,585.0469 Q569.8125,585.5 568.5313,585.5 Q567.0313,585.5 565.8281,584.9063 Q564.8594,584.4375 564.1719,583.4219 Q563.5,582.4063 563.5,581.2031 L563.5,580.1094 Q563.5,578.8594 564.0938,577.7656 Q564.7031,576.6719 565.75,576.0938 Q566.8125,575.5 568,575.5 Q568.7188,575.5 569.3438,575.75 Q569.9688,576 570.5,576.5 Z "/><text fill="#000000" font-family="sans-serif" font-size="12" lengthAdjust="spacingAndGlyphs" textLength="173" x="582.5" y="584.9102">Hba21HealthCardPresentEvent</text><line style="stroke: #A80036; stroke-width: 1.5;" x1="554.5" x2="757.5" y1="596" y2="596"/><line style="stroke: #A80036; stroke-width: 1.5;" x1="554.5" x2="757.5" y1="604" y2="604"/><ellipse cx="564.5" cy="616.418" fill="#84BE84" rx="3" ry="3" style="stroke: #038048; stroke-width: 1.0;"/><text fill="#000000" font-family="sans-serif" font-size="11" lengthAdjust="spacingAndGlyphs" textLength="156" x="573.5" y="619.4189">Hba21HealthCardPresentEvent()</text><!--class Hba2HealthCardPresentEvent--><rect fill="#FEFECE" filter="url(#f10on8wde162j1)" height="61.8359" id="Hba2HealthCardPresentEvent" style="stroke: #A80036; stroke-width: 1.5;" width="198" x="794" y="564"/><ellipse cx="809" cy="580" fill="#ADD1B2" rx="11" ry="11" style="stroke: #A80036; stroke-width: 1.0;"/><path d="M811,576.5 Q811.2031,576 811.4375,575.75 Q811.6719,575.5 811.9375,575.5 Q812.4063,575.5 812.7031,575.7813 Q813,576.0625 813,576.7188 L813,578.2813 Q813,578.9375 812.7188,579.2188 Q812.4375,579.5 812,579.5 Q811.6094,579.5 811.3594,579.3281 Q811.1094,579.1563 811,578.7031 Q810.9531,578.3906 810.7813,578.2188 Q810.4688,577.8906 809.9063,577.7031 Q809.3438,577.5 808.7813,577.5 Q808.0781,577.5 807.4844,577.7813 Q806.9063,578.0625 806.4531,578.6875 Q806,579.3125 806,580.1719 L806,581.0938 Q806,582.125 806.8438,582.8125 Q807.6875,583.5 809.1875,583.5 Q810.0781,583.5 810.7031,583.2969 Q811.0625,583.1875 811.4688,582.8281 Q811.7344,582.625 811.875,582.5625 Q812.0156,582.5 812.1875,582.5 Q812.5156,582.5 812.75,582.7656 Q813,583.0156 813,583.375 Q813,583.7188 812.6563,584.125 Q812.1563,584.7188 811.3594,585.0469 Q810.3125,585.5 809.0313,585.5 Q807.5313,585.5 806.3281,584.9063 Q805.3594,584.4375 804.6719,583.4219 Q804,582.4063 804,581.2031 L804,580.1094 Q804,578.8594 804.5938,577.7656 Q805.2031,576.6719 806.25,576.0938 Q807.3125,575.5 808.5,575.5 Q809.2188,575.5 809.8438,575.75 Q810.4688,576 811,576.5 Z "/><text fill="#000000" font-family="sans-serif" font-size="12" lengthAdjust="spacingAndGlyphs" textLength="166" x="823" y="584.9102">Hba2HealthCardPresentEvent</text><line style="stroke: #A80036; stroke-width: 1.5;" x1="795" x2="991" y1="596" y2="596"/><line style="stroke: #A80036; stroke-width: 1.5;" x1="795" x2="991" y1="604" y2="604"/><ellipse cx="805" cy="616.418" fill="#84BE84" rx="3" ry="3" style="stroke: #038048; stroke-width: 1.0;"/><text fill="#000000" font-family="sans-serif" font-size="11" lengthAdjust="spacingAndGlyphs" textLength="150" x="814" y="619.4189">Hba2HealthCardPresentEvent()</text><!--class Smcb21HealthCardPresentEvent--><rect fill="#FEFECE" filter="url(#f10on8wde162j1)" height="61.8359" id="Smcb21HealthCardPresentEvent" style="stroke: #A80036; stroke-width: 1.5;" width="214" x="62" y="564"/><ellipse cx="77" cy="580" fill="#ADD1B2" rx="11" ry="11" style="stroke: #A80036; stroke-width: 1.0;"/><path d="M79,576.5 Q79.2031,576 79.4375,575.75 Q79.6719,575.5 79.9375,575.5 Q80.4063,575.5 80.7031,575.7813 Q81,576.0625 81,576.7188 L81,578.2813 Q81,578.9375 80.7188,579.2188 Q80.4375,579.5 80,579.5 Q79.6094,579.5 79.3594,579.3281 Q79.1094,579.1563 79,578.7031 Q78.9531,578.3906 78.7813,578.2188 Q78.4688,577.8906 77.9063,577.7031 Q77.3438,577.5 76.7813,577.5 Q76.0781,577.5 75.4844,577.7813 Q74.9063,578.0625 74.4531,578.6875 Q74,579.3125 74,580.1719 L74,581.0938 Q74,582.125 74.8438,582.8125 Q75.6875,583.5 77.1875,583.5 Q78.0781,583.5 78.7031,583.2969 Q79.0625,583.1875 79.4688,582.8281 Q79.7344,582.625 79.875,582.5625 Q80.0156,582.5 80.1875,582.5 Q80.5156,582.5 80.75,582.7656 Q81,583.0156 81,583.375 Q81,583.7188 80.6563,584.125 Q80.1563,584.7188 79.3594,585.0469 Q78.3125,585.5 77.0313,585.5 Q75.5313,585.5 74.3281,584.9063 Q73.3594,584.4375 72.6719,583.4219 Q72,582.4063 72,581.2031 L72,580.1094 Q72,578.8594 72.5938,577.7656 Q73.2031,576.6719 74.25,576.0938 Q75.3125,575.5 76.5,575.5 Q77.2188,575.5 77.8438,575.75 Q78.4688,576 79,576.5 Z "/><text fill="#000000" font-family="sans-serif" font-size="12" lengthAdjust="spacingAndGlyphs" textLength="182" x="91" y="584.9102">Smcb21HealthCardPresentEvent</text><line style="stroke: #A80036; stroke-width: 1.5;" x1="63" x2="275" y1="596" y2="596"/><line style="stroke: #A80036; stroke-width: 1.5;" x1="63" x2="275" y1="604" y2="604"/><ellipse cx="73" cy="616.418" fill="#84BE84" rx="3" ry="3" style="stroke: #038048; stroke-width: 1.0;"/><text fill="#000000" font-family="sans-serif" font-size="11" lengthAdjust="spacingAndGlyphs" textLength="164" x="82" y="619.4189">Smcb21HealthCardPresentEvent()</text><!--class Smcb2HealthCardPresentEvent--><rect fill="#FEFECE" filter="url(#f10on8wde162j1)" height="61.8359" id="Smcb2HealthCardPresentEvent" style="stroke: #A80036; stroke-width: 1.5;" width="207" x="311.5" y="564"/><ellipse cx="326.5" cy="580" fill="#ADD1B2" rx="11" ry="11" style="stroke: #A80036; stroke-width: 1.0;"/><path d="M328.5,576.5 Q328.7031,576 328.9375,575.75 Q329.1719,575.5 329.4375,575.5 Q329.9063,575.5 330.2031,575.7813 Q330.5,576.0625 330.5,576.7188 L330.5,578.2813 Q330.5,578.9375 330.2188,579.2188 Q329.9375,579.5 329.5,579.5 Q329.1094,579.5 328.8594,579.3281 Q328.6094,579.1563 328.5,578.7031 Q328.4531,578.3906 328.2813,578.2188 Q327.9688,577.8906 327.4063,577.7031 Q326.8438,577.5 326.2813,577.5 Q325.5781,577.5 324.9844,577.7813 Q324.4063,578.0625 323.9531,578.6875 Q323.5,579.3125 323.5,580.1719 L323.5,581.0938 Q323.5,582.125 324.3438,582.8125 Q325.1875,583.5 326.6875,583.5 Q327.5781,583.5 328.2031,583.2969 Q328.5625,583.1875 328.9688,582.8281 Q329.2344,582.625 329.375,582.5625 Q329.5156,582.5 329.6875,582.5 Q330.0156,582.5 330.25,582.7656 Q330.5,583.0156 330.5,583.375 Q330.5,583.7188 330.1563,584.125 Q329.6563,584.7188 328.8594,585.0469 Q327.8125,585.5 326.5313,585.5 Q325.0313,585.5 323.8281,584.9063 Q322.8594,584.4375 322.1719,583.4219 Q321.5,582.4063 321.5,581.2031 L321.5,580.1094 Q321.5,578.8594 322.0938,577.7656 Q322.7031,576.6719 323.75,576.0938 Q324.8125,575.5 326,575.5 Q326.7188,575.5 327.3438,575.75 Q327.9688,576 328.5,576.5 Z "/><text fill="#000000" font-family="sans-serif" font-size="12" lengthAdjust="spacingAndGlyphs" textLength="175" x="340.5" y="584.9102">Smcb2HealthCardPresentEvent</text><line style="stroke: #A80036; stroke-width: 1.5;" x1="312.5" x2="517.5" y1="596" y2="596"/><line style="stroke: #A80036; stroke-width: 1.5;" x1="312.5" x2="517.5" y1="604" y2="604"/><ellipse cx="322.5" cy="616.418" fill="#84BE84" rx="3" ry="3" style="stroke: #038048; stroke-width: 1.0;"/><text fill="#000000" font-family="sans-serif" font-size="11" lengthAdjust="spacingAndGlyphs" textLength="158" x="331.5" y="619.4189">Smcb2HealthCardPresentEvent()</text><!--class UnknownCardPresentEvent--><rect fill="#FEFECE" filter="url(#f10on8wde162j1)" height="61.8359" id="UnknownCardPresentEvent" style="stroke: #A80036; stroke-width: 1.5;" width="184" x="1278" y="442"/><ellipse cx="1293" cy="458" fill="#ADD1B2" rx="11" ry="11" style="stroke: #A80036; stroke-width: 1.0;"/><path d="M1295,454.5 Q1295.2031,454 1295.4375,453.75 Q1295.6719,453.5 1295.9375,453.5 Q1296.4063,453.5 1296.7031,453.7813 Q1297,454.0625 1297,454.7188 L1297,456.2813 Q1297,456.9375 1296.7188,457.2188 Q1296.4375,457.5 1296,457.5 Q1295.6094,457.5 1295.3594,457.3281 Q1295.1094,457.1563 1295,456.7031 Q1294.9531,456.3906 1294.7813,456.2188 Q1294.4688,455.8906 1293.9063,455.7031 Q1293.3438,455.5 1292.7813,455.5 Q1292.0781,455.5 1291.4844,455.7813 Q1290.9063,456.0625 1290.4531,456.6875 Q1290,457.3125 1290,458.1719 L1290,459.0938 Q1290,460.125 1290.8438,460.8125 Q1291.6875,461.5 1293.1875,461.5 Q1294.0781,461.5 1294.7031,461.2969 Q1295.0625,461.1875 1295.4688,460.8281 Q1295.7344,460.625 1295.875,460.5625 Q1296.0156,460.5 1296.1875,460.5 Q1296.5156,460.5 1296.75,460.7656 Q1297,461.0156 1297,461.375 Q1297,461.7188 1296.6563,462.125 Q1296.1563,462.7188 1295.3594,463.0469 Q1294.3125,463.5 1293.0313,463.5 Q1291.5313,463.5 1290.3281,462.9063 Q1289.3594,462.4375 1288.6719,461.4219 Q1288,460.4063 1288,459.2031 L1288,458.1094 Q1288,456.8594 1288.5938,455.7656 Q1289.2031,454.6719 1290.25,454.0938 Q1291.3125,453.5 1292.5,453.5 Q1293.2188,453.5 1293.8438,453.75 Q1294.4688,454 1295,454.5 Z "/><text fill="#000000" font-family="sans-serif" font-size="12" lengthAdjust="spacingAndGlyphs" textLength="152" x="1307" y="462.9102">UnknownCardPresentEvent</text><line style="stroke: #A80036; stroke-width: 1.5;" x1="1279" x2="1461" y1="474" y2="474"/><line style="stroke: #A80036; stroke-width: 1.5;" x1="1279" x2="1461" y1="482" y2="482"/><ellipse cx="1289" cy="494.418" fill="#84BE84" rx="3" ry="3" style="stroke: #038048; stroke-width: 1.0;"/><text fill="#000000" font-family="sans-serif" font-size="11" lengthAdjust="spacingAndGlyphs" textLength="141" x="1298" y="497.4189">UnknownCardPresentEvent()</text><!--class AbstractCardReaderEvent--><rect fill="#FEFECE" filter="url(#f10on8wde162j1)" height="48" id="AbstractCardReaderEvent" style="stroke: #A80036; stroke-width: 1.5;" width="176" x="901" y="60"/><ellipse cx="916" cy="76" fill="#A9DCDF" rx="11" ry="11" style="stroke: #A80036; stroke-width: 1.0;"/><path d="M917.75,77.5 L914.4531,77.5 L914.0156,78.5 L914.0156,78.5 L914.4844,78.5 L915,79.125 L915,79.5 L915,79.875 L914.4844,80.5 L914.0156,80.5 L912.125,80.5 L911.5156,80.5 L911,79.875 L911,79.5 L911,79.125 L911.5156,78.5 L912.125,78.5 L914.4375,72.5 L913.5625,72.5 L912.5156,72.5 L912,71.875 L912,71.5 L912,71.125 L912.5156,70.5 L913.5625,70.5 L917.2344,70.5 L919.9219,78.5 L920.4844,78.5 L920.4844,78.5 L921,79.125 L921,79.5 L921,79.875 L920.4844,80.5 L919.9219,80.5 L918.0313,80.5 L917.5156,80.5 L917,79.875 L917,79.5 L917,79.125 L917.5156,78.5 L918.0313,78.5 L918.0313,78.5 L917.75,77.5 Z M917.2031,75.5 L916,71.9219 L914.9688,75.5 L917.2031,75.5 Z "/><text fill="#000000" font-family="sans-serif" font-size="12" font-style="italic" lengthAdjust="spacingAndGlyphs" textLength="144" x="930" y="80.9102">AbstractCardReaderEvent</text><line style="stroke: #A80036; stroke-width: 1.5;" x1="902" x2="1076" y1="92" y2="92"/><line style="stroke: #A80036; stroke-width: 1.5;" x1="902" x2="1076" y1="100" y2="100"/><!--link AbstractCardReaderEvent to AbstractHealthCardEvent--><path d="M989,128.208 C989,146.133 989,166.72 989,183.941 " fill="none" id="AbstractCardReaderEvent-AbstractHealthCardEvent" style="stroke: #A80036; stroke-width: 1.0;"/><polygon fill="none" points="982,128.071,989,108.071,996,128.071,982,128.071" style="stroke: #A80036; stroke-width: 1.0;"/><!--link AbstractHealthCardPresentEvent to AbstractEgkHealthCardPresentEvent--><path d="M1038.32,395.516 C1055.69,410.846 1074.83,427.731 1090.69,441.729 " fill="none" id="AbstractHealthCardPresentEvent-AbstractEgkHealthCardPresentEvent" style="stroke: #A80036; stroke-width: 1.0;"/><polygon fill="none" points="1033.68,400.762,1023.32,382.281,1042.95,390.265,1033.68,400.762" style="stroke: #A80036; stroke-width: 1.0;"/><!--link AbstractHealthCardPresentEvent to AbstractHbaHealthCardPresentEvent--><path d="M939.782,395.75 C922.606,411.017 903.722,427.802 888.055,441.729 " fill="none" id="AbstractHealthCardPresentEvent-AbstractHbaHealthCardPresentEvent" style="stroke: #A80036; stroke-width: 1.0;"/><polygon fill="none" points="935.335,390.337,954.934,382.281,944.636,400.8,935.335,390.337" style="stroke: #A80036; stroke-width: 1.0;"/><!--link AbstractHealthCardEvent to AbstractHealthCardPresentEvent--><path d="M989,280.23 C989,293.93 989,308.024 989,319.925 " fill="none" id="AbstractHealthCardEvent-AbstractHealthCardPresentEvent" style="stroke: #A80036; stroke-width: 1.0;"/><polygon fill="none" points="982,280.075,989,260.075,996,280.075,982,280.075" style="stroke: #A80036; stroke-width: 1.0;"/><!--link AbstractHealthCardPresentEvent to AbstractSmcbHealthCardPresentEvent--><path d="M862.666,378.411 C766.18,398.583 633.952,426.226 538.241,446.235 " fill="none" id="AbstractHealthCardPresentEvent-AbstractSmcbHealthCardPresentEvent" style="stroke: #A80036; stroke-width: 1.0;"/><polygon fill="none" points="861.371,371.531,882.38,374.29,864.236,385.235,861.371,371.531" style="stroke: #A80036; stroke-width: 1.0;"/><!--link AbstractEgkHealthCardPresentEvent to Egk21HealthCardPresentEvent--><path d="M1126.68,524.373 C1127.13,537.754 1127.59,551.792 1127.99,563.729 " fill="none" id="AbstractEgkHealthCardPresentEvent-Egk21HealthCardPresentEvent" style="stroke: #A80036; stroke-width: 1.0;"/><polygon fill="none" points="1119.68,524.503,1126.01,504.281,1133.67,524.037,1119.68,524.503" style="stroke: #A80036; stroke-width: 1.0;"/><!--link AbstractEgkHealthCardPresentEvent to Egk2HealthCardPresentEvent--><path d="M1203.15,513.24 C1235.92,529.694 1273.43,548.525 1303.97,563.861 " fill="none" id="AbstractEgkHealthCardPresentEvent-Egk2HealthCardPresentEvent" style="stroke: #A80036; stroke-width: 1.0;"/><polygon fill="none" points="1199.73,519.356,1185,504.126,1206.02,506.845,1199.73,519.356" style="stroke: #A80036; stroke-width: 1.0;"/><!--link AbstractHbaHealthCardPresentEvent to Hba21HealthCardPresentEvent--><path d="M786.972,514.623 C760.375,530.743 730.328,548.953 705.729,563.861 " fill="none" id="AbstractHbaHealthCardPresentEvent-Hba21HealthCardPresentEvent" style="stroke: #A80036; stroke-width: 1.0;"/><polygon fill="none" points="783.56,508.506,804.292,504.126,790.816,520.479,783.56,508.506" style="stroke: #A80036; stroke-width: 1.0;"/><!--link AbstractHbaHealthCardPresentEvent to Hba2HealthCardPresentEvent--><path d="M870.061,523.418 C874.503,537.085 879.19,551.508 883.162,563.729 " fill="none" id="AbstractHbaHealthCardPresentEvent-Hba2HealthCardPresentEvent" style="stroke: #A80036; stroke-width: 1.0;"/><polygon fill="none" points="863.366,525.465,863.841,504.281,876.68,521.138,863.366,525.465" style="stroke: #A80036; stroke-width: 1.0;"/><!--link AbstractSmcbHealthCardPresentEvent to Smcb21HealthCardPresentEvent--><path d="M335.029,513.01 C301.186,529.519 262.371,548.453 230.784,563.861 " fill="none" id="AbstractSmcbHealthCardPresentEvent-Smcb21HealthCardPresentEvent" style="stroke: #A80036; stroke-width: 1.0;"/><polygon fill="none" points="332.197,506.603,353.241,504.126,338.335,519.186,332.197,506.603" style="stroke: #A80036; stroke-width: 1.0;"/><!--link AbstractSmcbHealthCardPresentEvent to Smcb2HealthCardPresentEvent--><path d="M415,524.373 C415,537.754 415,551.792 415,563.729 " fill="none" id="AbstractSmcbHealthCardPresentEvent-Smcb2HealthCardPresentEvent" style="stroke: #A80036; stroke-width: 1.0;"/><polygon fill="none" points="408,524.281,415,504.281,422,524.281,408,524.281" style="stroke: #A80036; stroke-width: 1.0;"/><!--link AbstractHealthCardPresentEvent to UnknownCardPresentEvent--><path d="M1103.89,388.184 C1159.59,405.729 1225.59,426.517 1277.93,443.001 " fill="none" id="AbstractHealthCardPresentEvent-UnknownCardPresentEvent" style="stroke: #A80036; stroke-width: 1.0;"/><polygon fill="none" points="1101.62,394.811,1084.65,382.126,1105.83,381.458,1101.62,394.811" style="stroke: #A80036; stroke-width: 1.0;"/><!--
@startuml

    package de.gematik.ti.healthcard.control.events.healthcard {
      package de.gematik.ti.healthcard.control.events.healthcard.present {
        abstract class AbstractEgkHealthCardPresentEvent {
            # AbstractEgkHealthCardPresentEvent()
        }
      }
    }


    package de.gematik.ti.healthcard.control.events.healthcard {
      package de.gematik.ti.healthcard.control.events.healthcard.present {
        abstract class AbstractHbaHealthCardPresentEvent {
            # AbstractHbaHealthCardPresentEvent()
        }
      }
    }


    package de.gematik.ti.healthcard.control.events.healthcard {
      package de.gematik.ti.healthcard.control.events.healthcard.present {
        abstract class AbstractHealthCardPresentEvent {
            # AbstractHealthCardPresentEvent()
        }
      }
    }


    package de.gematik.ti.healthcard.control.events.healthcard {
      package de.gematik.ti.healthcard.control.events.healthcard.present {
        abstract class AbstractSmcbHealthCardPresentEvent {
            # AbstractSmcbHealthCardPresentEvent()
        }
      }
    }


    package de.gematik.ti.healthcard.control.events.healthcard {
      package de.gematik.ti.healthcard.control.events.healthcard.present {
        class Egk21HealthCardPresentEvent {
            + Egk21HealthCardPresentEvent()
        }
      }
    }


    package de.gematik.ti.healthcard.control.events.healthcard {
      package de.gematik.ti.healthcard.control.events.healthcard.present {
        class Egk2HealthCardPresentEvent {
            + Egk2HealthCardPresentEvent()
        }
      }
    }


    package de.gematik.ti.healthcard.control.events.healthcard {
      package de.gematik.ti.healthcard.control.events.healthcard.present {
        class Hba21HealthCardPresentEvent {
            + Hba21HealthCardPresentEvent()
        }
      }
    }


    package de.gematik.ti.healthcard.control.events.healthcard {
      package de.gematik.ti.healthcard.control.events.healthcard.present {
        class Hba2HealthCardPresentEvent {
            + Hba2HealthCardPresentEvent()
        }
      }
    }


    package de.gematik.ti.healthcard.control.events.healthcard {
      package de.gematik.ti.healthcard.control.events.healthcard.present {
        class Smcb21HealthCardPresentEvent {
            + Smcb21HealthCardPresentEvent()
        }
      }
    }


    package de.gematik.ti.healthcard.control.events.healthcard {
      package de.gematik.ti.healthcard.control.events.healthcard.present {
        class Smcb2HealthCardPresentEvent {
            + Smcb2HealthCardPresentEvent()
        }
      }
    }


    package de.gematik.ti.healthcard.control.events.healthcard {
      package de.gematik.ti.healthcard.control.events.healthcard.present {
        class UnknownCardPresentEvent {
            + UnknownCardPresentEvent()
        }
      }
    }

      package de.gematik.ti.healthcard.control.events.healthcard {
        abstract class AbstractHealthCardEvent {
            # AbstractHealthCardEvent()
            + getHealthCard()
        }
      }

  package de.gematik.ti.cardreader.provider.api.events {
      abstract class AbstractCardReaderEvent {
      }
    }

  AbstractHealthCardEvent -up-|> AbstractCardReaderEvent
  AbstractEgkHealthCardPresentEvent -up-|> AbstractHealthCardPresentEvent
  AbstractHbaHealthCardPresentEvent -up-|> AbstractHealthCardPresentEvent
  AbstractHealthCardPresentEvent -up-|> AbstractHealthCardEvent
  AbstractSmcbHealthCardPresentEvent -up-|> AbstractHealthCardPresentEvent
  Egk21HealthCardPresentEvent -up-|> AbstractEgkHealthCardPresentEvent
  Egk2HealthCardPresentEvent -up-|> AbstractEgkHealthCardPresentEvent
  Hba21HealthCardPresentEvent -up-|> AbstractHbaHealthCardPresentEvent
  Hba2HealthCardPresentEvent -up-|> AbstractHbaHealthCardPresentEvent
  Smcb21HealthCardPresentEvent -up-|> AbstractSmcbHealthCardPresentEvent
  Smcb2HealthCardPresentEvent -up-|> AbstractSmcbHealthCardPresentEvent
  UnknownCardPresentEvent -up-|> AbstractHealthCardPresentEvent

@enduml

PlantUML version 1.2019.06(Fri May 24 19:10:25 CEST 2019)
(APACHE source distribution)
Java Runtime: OpenJDK Runtime Environment
JVM: OpenJDK 64-Bit Server VM
Java Version: 11.0.4+10-b304.69
Operating System: Windows 7
OS Version: 6.1
Default Encoding: Cp1252
Language: de
Country: DE
--></g></svg>